<?xml version="1.0" standalone="no"?>
<!DOCTYPE svg PUBLIC "-//W3C//DTD SVG 1.1//EN" "http://www.w3.org/Graphics/SVG/1.1/DTD/svg11.dtd" >
<!--
2013-9-30: Created.
-->
<svg>
<metadata>
Created by iconfont
</metadata>
<defs>

<font id="iconfont" horiz-adv-x="1024" >
  <font-face
    font-family="iconfont"
    font-weight="500"
    font-stretch="normal"
    units-per-em="1024"
    ascent="896"
    descent="-128"
  />
    <missing-glyph />
    
    <glyph glyph-name="zhuanfa1" unicode="&#58883;" d="M849.8656-15.8329c0 0 0-51.5301-51.5322-51.5301h-618.3760944278495c0 0-51.5292 0-51.5292 51.5301v412.2305077157687c0 51.5311 51.5292 51.5311 51.5292 51.5311h154.59452328866513l51.5332 51.5271H128.4281912421787c-29.2384 0-51.5332-22.9444-51.5332-51.5271l-0.1499-515.1897c0-28.5836 23.6989-51.8309 52.9373-51.8309l720.1822 0.1969c29.1834 0 51.5292 22.9484 51.5292 51.5311V293.3405151307414l-51.5292-51.5281V-15.832865317314827zM946.9888 449.7904l-260.0244 200.9817c-4.778 3.6735-11.1189 4.2771-16.5015 1.7088-5.3346-2.6122-8.7604-7.9986-8.7604-13.9366v-120.36739090896371c-98.6861-2.971-177.6898-40.5615-234.9593-99.5375-102.103-104.9199-92.0883-258.4508-91.8395-264.8904 0.2518-8.2544 6.9446-14.793 15.2503-14.9978h0.34777846511772c8.1518 0 14.9475 6.2418 15.6021 14.3433 0.6036 8.4043 13.2855 202.7965 295.5997 209.6898v-126.25839680696487c0-5.888 3.4258-11.3243 8.7604-13.9366 5.3826-2.6192 11.7745-1.9647 16.5015 1.7088l260.0244 200.9817c3.7716 2.92 6.0362 7.4499 6.0362 12.2787C953.0249 442.2945 950.7614 446.8195 946.9888 449.7904zM692.9546 268.2815V378.53175546979145c0 8.5542-6.9925 15.5535-15.649 15.5535-166.373 0-247.6942-61.1425-293.1852-121.5276 12.6819 41.312 28.3819 86.8061 65.1185 124.5426 54.1495 55.7052 130.9436 90.2778 228.0667 90.2778 8.6565 0 15.649 6.9443 15.649 15.4985V606.7430282268622l218.9555-169.1843L692.9546 268.2815z"  horiz-adv-x="1000" />

    
    <glyph glyph-name="dayu" unicode="&#58909;" d="M285.738241 48.922614c-5.854575 3.681856-13.491822 1.940189-17.219879-3.833305l-43.383821-68.463278c-3.70145-5.823636-1.993482-13.59053 3.830392-17.268292 2.073303-1.277086 4.371743-1.942235 6.643576-1.942235 4.142513 0 8.202135 2.098801 10.629517 5.77247l43.38075 68.467371C293.29976 37.477958 291.584629 45.19471 285.738241 48.922614zM434.066412 48.922614c-5.823874 3.681856-13.492845 1.940189-17.219879-3.833305l-43.38075-68.463278c-3.727034-5.823636-1.993482-13.59053 3.807878-17.268292 2.092747-1.277086 4.394257-1.942235 6.66609-1.942235 4.16605 0 8.178598 2.098801 10.580396 5.77247l43.379727 68.467371C441.627931 37.477958 439.890286 45.19471 434.066412 48.922614zM582.425283 48.922614c-5.854575 3.681856-13.568573 1.940189-17.273093-3.833305l-43.402241-68.463278c-3.682007-5.823636-1.966875-13.59053 3.829369-17.268292 2.119354-1.277086 4.444401-1.942235 6.742841-1.942235 4.089299 0 8.178598 2.098801 10.526159 5.77247l43.433965 68.467371C589.987826 37.477958 588.22255 45.19471 582.425283 48.922614zM730.704333 48.922614c-5.774753 3.681856-13.515359 1.994424-17.193272-3.933589l-43.432941-68.364017c-3.682007-5.823636-1.940268-13.59053 3.883606-17.268292 2.042603-1.277086 4.394257-1.942235 6.66609-1.942235 4.115906 0 8.178598 2.098801 10.580396 5.821589l43.403264 68.417229C738.29246 37.477958 736.554815 45.19471 730.704333 48.922614zM317.928679-73.701191c-5.877088 3.730974-13.541966 1.992377-17.223972-3.831258l-43.483085-68.465325c-3.677913-5.823636-1.913661-13.542434 3.883606-17.220197 2.095817-1.325182 4.394257-1.939165 6.695767-1.939165 4.139443 0 8.175528 2.042519 10.576303 5.770424l43.407358 68.463278C325.486105-85.096728 323.75153-77.382023 317.928679-73.701191zM466.25685-73.701191c-5.823874 3.730974-13.568573 1.992377-17.243416-3.831258l-43.432941-68.465325c-3.651306-5.823636-1.966875-13.542434 3.856999-17.220197 2.09684-1.325182 4.39528-1.939165 6.692697-1.939165 4.139443 0 8.179622 2.042519 10.553789 5.770424l43.406334 68.463278C473.81837-85.096728 472.080725-77.382023 466.25685-73.701191zM614.586045-73.701191c-5.872995 3.730974-13.537872 1.992377-17.243416-3.831258l-43.432941-68.465325c-3.70452-5.823636-1.966875-13.542434 3.860069-17.220197 2.092747-1.325182 4.394257-1.939165 6.692697-1.939165 4.139443 0 8.175528 2.042519 10.527182 5.770424l43.456478 68.463278C622.150634-85.096728 620.386382-77.382023 614.586045-73.701191zM762.868165-73.701191c-5.774753 3.730974-13.492845 1.992377-17.197365-3.831258l-43.402241-68.465325c-3.731127-5.823636-1.989389-13.542434 3.833462-17.220197 2.092747-1.325182 4.391187-1.939165 6.692697-1.939165 4.139443 0 8.171435 2.042519 10.527182 5.821589l43.425778 68.463278C770.483922-85.096728 768.72274-77.382023 762.868165-73.701191zM821.605277 610.344211c-0.69076 0.506537-1.151267 1.272993-1.917754 1.733481-2.453989 1.326205-4.955052 2.351558-7.355826 3.62762-1.128753 0.60989-2.302533 1.177825-3.452777 1.684362-30.094622 15.172561-62.104951 24.63098-94.833671 28.000728C664.612418 719.526889 580.455338 765.157135 491.190728 765.157135c-120.429654 0-224.105053-78.784344-257.038443-193.240119-2.630005-0.865717-5.187352-1.936095-7.763119-2.808976-2.988177-1.02126-6.052081-1.989307-9.017744-3.163039-45.145003-17.683754-82.880965-48.1353-109.650728-86.451978-0.103358-0.152473-0.152479-0.358157-0.255837-0.461511-3.708614-5.263887-7.154227-10.732435-10.423824-16.350386-0.411386-0.613984-0.769558-1.330298-1.177874-1.9934-2.912449-5.213745-5.671395-10.473539-8.251256-15.888875-0.488137-0.972141-0.917943-1.9934-1.352866-2.964518-2.455012-5.313006-4.650094-10.728342-6.745911-16.247033-0.255837-0.663102-0.559771-1.326205-0.842216-2.043542-0.026607-0.152473 0-0.205685-0.026607-0.358157-9.247997-25.702382-14.357574-53.237505-14.357574-81.856309 0-133.145439 108.374613-241.516636 241.557232-241.516636l380.407153 0c150.756576 0 273.46625 122.672924 273.46625 273.507234C959.715317 474.533059 904.30204 563.185144 821.605277 610.344211zM686.249067 149.727485 305.842938 149.727485C200.174057 149.727485 114.205651 235.77628 114.205651 341.330314c0 31.990598 8.098777 62.232366 22.12888 89.00922 0.864729 1.635243 1.706945 3.372817 2.652518 5.008061 4.112836 7.408737 8.865265 14.410198 14.002472 21.151739 1.326259 1.787716 2.606468 3.52529 3.956264 5.259794 5.191445 6.391571 10.885354 12.416797 16.888314 18.137079 1.63531 1.535983 3.296204 3.171226 5.011336 4.652973 6.307918 5.567809 12.974008 10.728342 20.024876 15.480576 1.585166 1.071402 3.171356 2.092661 4.779036 3.167133 7.790749 4.855588 15.966277 9.298783 24.553192 13.0799 0.864729 0.407276 1.684431 0.766456 2.553254 1.124614 9.555001 4.090155 19.518319 7.461949 29.888929 10.016121 0.053214 0 0.079821 0.049119 0.106428 0.049119 23.298567 5.671163 47.824128 7.207146 72.629063 3.579525 13.518429-1.89107 26.344051 7.458879 28.33344 21.148669 1.997576 13.594623-7.459184 26.315342-21.125999 28.259624-16.731742 2.450818-33.44404 2.912329-49.893338 1.787716C324.159846 662.095875 401.979331 715.135882 491.190728 715.135882c62.185796 0 119.255874-26.056446 160.083371-70.864978-13.233938-1.794879-26.413639-4.13825-39.44393-7.766894-70.333693-19.932981-128.689097-66.017576-164.324126-129.73169-6.745911-12.054547-2.453989-27.226085 9.605146-33.972742 3.833462-2.149966 8.048633-3.167133 12.161469-3.167133 8.739393 0 17.269 4.542456 21.843366 12.770861 29.125511 52.113915 76.798184 89.771583 134.306255 106.018615 23.451046 6.696516 47.416835 9.146311 71.100181 8.125051 0.640616-0.053212 1.303746-0.304945 1.966875-0.358157 118.463803-6.440689 211.284548-104.281041 211.284548-222.868927C909.771835 250.07596 809.469392 149.727485 686.249067 149.727485z"  horiz-adv-x="1024" />

    
    <glyph glyph-name="next" unicode="&#59061;" d="M764.377 288.489l-78.721 78.721-0.175-0.193-369.014 369.013-56.845-56.846 354.477-390.88-354.477-390.88 56.845-56.845 447.726 447.726z"  horiz-adv-x="1024" />

    
    <glyph glyph-name="msnui-more" unicode="&#59001;" d="M169.002 489.682c-57.562 0-104.228-46.646-104.228-104.228 0-57.563 46.666-104.209 104.228-104.209s104.228 46.646 104.228 104.209c0 57.582-46.667 104.228-104.228 104.228zM501.431 489.682c-57.562 0-104.228-46.646-104.228-104.228 0-57.563 46.667-104.209 104.228-104.209s104.228 46.646 104.228 104.209c0 57.582-46.666 104.228-104.228 104.228zM854.638 489.682c-57.563 0-104.23-46.646-104.23-104.228 0-57.563 46.667-104.209 104.23-104.209s104.228 46.646 104.228 104.209c-0.001 57.582-46.666 104.228-104.228 104.228z"  horiz-adv-x="1024" />

    
    <glyph glyph-name="msnui-correct" unicode="&#59067;" d="M510.427 834.667q92.784 0 173.843-35.176t141.725-96.353 95.843-142.745 35.176-174.353-35.176-174.863-95.843-143.255-141.725-96.353-173.843-35.176-174.353 35.176-142.235 96.353-95.843 143.255-35.176 174.863 35.176 174.353 95.843 142.745 142.235 96.353 174.353 35.176zM790.819 471.686q18.353 18.353 19.373 45.373t-17.333 45.373-44.863 17.843-44.863-18.863l-287.529-287.529-98.902 97.882q-18.353 18.353-44.863 18.863t-44.863-17.843-18.863-43.333 17.843-43.333l141.725-142.745q18.353-18.353 47.922-17.843t47.922 18.863l-4.078-4.078z"  horiz-adv-x="1024" />

    
    <glyph glyph-name="bukejian" unicode="&#58934;" d="M498.893494 541.009076c129.828904 0 235.093343-105.244996 235.093343-235.094366 0-38.436404-9.41237-74.594929-25.790386-106.621343l122.749672-122.709763c116.898407 98.893334 192.009082 214.638475 192.009082 214.638475S794.903232 643.862605 513.586125 643.862605c-69.486584 0-135.607514-21.599947-195.951881-53.989635l74.617441-74.613348C424.276053 531.596705 460.436624 541.009076 498.893494 541.009076zM498.893494 70.821367c-129.868813 0-235.093343 105.247043-235.093343 235.093343 0 48.691979 14.767332 93.919043 40.137139 131.437541l-86.053911 86.076424C88.704275 421.244388 4.218068 291.222079 4.218068 291.222079s228.051973-352.639502 509.370103-352.639502c79.167061 0 153.818271 28.371164 220.627886 68.490907L630.328989 110.962599C592.792071 85.628608 547.565007 70.821367 498.893494 70.821367zM485.423715 422.104989l129.636522-129.659035c0.538259 4.477988 1.379417 8.858762 1.379417 13.468756 0 64.953338-52.650127 117.547183-117.54616 117.547183C494.26201 423.461893 489.861794 422.621758 485.423715 422.104989zM543.891338 197.380808 390.339126 350.952462c-5.779633-13.870916-8.991792-29.062919-8.991792-45.036729 0-64.953338 52.610218-117.54616 117.547183-117.54616C514.848884 188.36855 530.040888 191.619594 543.891338 197.380808zM144.453996 652.241436l720.358445-720.356398 27.700899 27.702945L172.156942 679.947452 144.453996 652.241436z"  horiz-adv-x="1024" />

    
    <glyph glyph-name="dashboard" unicode="&#58929;" d="M951.973017 63.759372C841.084348 64.286506 730.19007 64.0192 619.29953 64.0192L601.726049 64.0192C603.324488 41.46456 605.364134 19.863249 606.261503-1.788533 607.416865-29.674337 620.505371-49.277397 644.878294-62.205285 654.762443-67.446724 664.190429-73.564853 673.695065-79.488577 676.547952-81.264385 679.561617-83.303762 681.472266-85.963736 686.819091-93.410918 683.324959-100.233762 674.076447-100.405735 659.75219-100.669301 645.420455-100.512283 631.092459-100.510414 538.891505-100.504806 446.688681-100.502937 354.485857-100.450597 349.069859-100.446859 342.236766-102.140419 340.408377-94.758662 338.639811-87.625519 343.571603-83.271984 349.22503-79.886732 361.507772-72.534883 373.822295-65.233506 386.041473-57.778848 404.906793-46.273476 415.247105-29.474326 416.910977-7.403827 418.666456 15.868614 420.40137 39.142924 422.26341 64.013592L410.184446 64.013592C296.489628 64.015462 182.792941 64.009854 69.098123 64.0192 44.254081 64.021069 33.343566 74.999306 33.341697 99.980262 33.337958 275.953561 33.334219 491.885967 33.347305 667.859266 33.349175 690.369044 44.885979 702.130505 67.037913 702.132375 362.02189 702.152937 657.007736 702.046389 951.989842 702.403419 970.327958 702.423982 983.246336 696.737655 990.533723 679.712322L990.533723 86.44673C983.210815 69.462521 970.314871 63.673385 951.973017 63.759372ZM945.005318 636.54725 78.713061 636.54725 78.713061 134.222445 945.005318 134.222445 945.005318 636.54725ZM138.032909 281.207922C138.032909 292.391778 138.14695 303.579373 137.995519 314.761361 137.883348 323.152524 141.583126 327.621954 150.173568 327.623824 162.912473 327.625693 175.653247 327.560268 188.392151 327.65747 197.016244 327.722895 200.932887 323.178694 200.957191 314.989412 201.026363 291.99923 201.013277 269.01092 200.908583 246.020739 200.871193 237.758555 196.763859 233.425581 188.197721 233.50783 175.771027 233.631201 163.338724 233.410628 150.912028 233.580732 141.670994 233.709711 138.145081 237.35853 138.034779 246.723585 137.898304 258.215872 138.001127 269.713765 138.001127 281.207922L138.032909 281.207922ZM319.428631 297.096736C319.43424 313.269681 319.351981 329.446364 319.464151 345.617439 319.535193 355.627392 322.879764 358.906097 332.941517 358.992083 345.072828 359.094892 357.206008 359.134147 369.335449 358.978997 378.709219 358.859364 382.379086 355.434857 382.422085 346.006248 382.573515 312.727592 382.498735 279.447067 382.403389 246.168411 382.380955 237.939875 378.288578 233.481659 369.733657 233.528392 357.290136 233.595685 344.846616 233.416235 332.406834 233.58447 323.137757 233.71158 319.525846 237.384701 319.458543 246.71237 319.333285 263.505912 319.423022 280.303193 319.428631 297.096736ZM291.46623 312.09017C291.468099 290.621577 291.535402 269.152984 291.440057 247.684391 291.393319 236.863173 288.271221 233.683541 277.706568 233.571385 265.883728 233.444274 254.057148 233.459228 242.232439 233.573254 232.514677 233.664848 228.930809 236.790272 228.895287 246.217012 228.73077 290.086965 228.712075 333.960656 228.850419 377.83061 228.880332 387.268566 232.481026 390.444459 242.180092 390.551007 254.315142 390.685596 266.452062 390.683726 278.587111 390.547269 287.919752 390.444459 291.376494 386.962005 291.42697 377.430585 291.541011 355.651693 291.462491 333.872801 291.46623 312.09017ZM851.1891 483.435151C811.917976 454.016542 773.101146 424.94188 733.188778 395.04287L733.188778 546.582909C768.919032 550.037325 830.29909 517.513855 851.1891 483.435151ZM410.291009 326.980794C410.291009 353.442213 410.266705 379.901763 410.302226 406.359444 410.319052 419.223777 413.300935 422.124887 426.363267 422.152926 437.260695 422.179095 448.158123 422.231435 459.053681 422.126757 469.141608 422.027685 472.833908 418.62374 472.850735 408.903524 472.940471 354.737618 472.957297 300.571714 472.876907 246.409547 472.863821 237.130479 469.192085 233.662979 459.717361 233.548954 447.578572 233.401281 435.434174 233.406888 423.293516 233.552692 413.968354 233.662979 410.451788 237.111786 410.40131 246.667507 410.257358 273.439225 410.350834 300.210944 410.350834 326.980794L410.291009 326.980794ZM350.200919 426.084006C379.395333 459.244897 408.288754 492.065581 438.866612 526.798531 425.359335 526.798531 414.314214 526.970504 403.274703 526.736845 395.817191 526.581696 390.088983 528.594902 389.384174 536.944941 388.812102 543.709838 394.293532 547.577362 403.781342 547.594186 422.15124 547.625964 440.523006 547.644657 458.894773 547.551193 469.676291 547.496984 472.82643 544.403338 472.882516 533.714839 472.985339 514.724901 472.811474 495.733093 472.98347 476.741287 473.050772 469.372615 470.192278 464.048927 462.637551 464.032104 455.157603 464.013412 451.979421 469.238027 452.078505 476.617915 452.216849 486.796103 452.114026 496.979899 452.114026 509.601225 447.582311 504.68317 444.501344 501.462413 441.55685 498.122023 415.207845 468.226751 388.913055 438.282877 362.528529 408.419382 354.216646 399.009465 350.653342 398.730944 340.636458 406.699651 314.087414 427.816822 287.620628 449.034932 260.54625 470.673629 257.992486 468.432371 255.45181 466.333178 253.055086 464.080705 222.660441 435.499531 192.28823 406.894056 161.902933 378.305405 159.637074 376.174434 157.468432 373.882706 154.957668 372.080728 149.958573 368.493594 144.052761 368.330968 141.067139 373.557453 139.113492 376.974483 140.063208 382.569215 140.997967 386.911534 141.489651 389.193916 144.714571 390.909908 146.754217 392.83152 180.749557 424.854024 214.746765 456.876529 248.75893 488.880342 257.805535 497.391138 260.542511 497.510771 270.265881 489.749553 294.10973 470.72223 317.918059 451.650044 341.750691 432.609635 344.405409 430.488011 347.129299 428.452374 350.200919 426.084006ZM818.926805 253.043595C792.833923 293.481564 766.755998 333.898971 740.330342 374.852859 781.422377 405.619212 821.931122 435.946287 862.467909 466.297662 903.608552 404.626629 890.860299 303.298982 818.926805 253.043595ZM711.962256 535.013983C711.962256 504.718686 711.965996 475.18979 711.960386 445.662764 711.958517 426.984995 711.683697 408.301618 712.117426 389.636934 712.225858 384.984315 713.616781 379.75409 716.093894 375.854788 739.281542 339.360985 762.831877 303.102708 786.27191 266.769662 789.113579 262.367525 791.91599 257.939219 794.725877 253.535214 753.101029 227.103703 685.497341 224.084828 633.130235 261.915161 579.918106 300.353009 557.330574 368.112262 577.057742 430.059948 596.143664 489.985082 652.55641 534.258797 711.962256 535.013983Z"  horiz-adv-x="1024" />

    
    <glyph glyph-name="tuichu" unicode="&#58970;" d="M797.501918 683.458415 179.425997 683.458415c-28.258601 0-51.16531-22.907733-51.16531-51.16531l0-665.149029c0-28.257577 22.906709-51.16531 51.16531-51.16531l618.075921 0c28.258601 0 51.16531 22.907733 51.16531 51.16531l0 70.89977 0 71.062476 0 0.218988-0.011256 0c-0.118704 11.169387-9.200546 20.189831-20.398586 20.189831s-20.278859-9.020444-20.398586-20.189831l-0.011256 0 0-0.218988 0-71.062476 0-53.770648c0-28.257577-1.418302-24.559349-29.67588-24.559349L207.964984-40.28615c-28.256554 0-38.885636-3.698229-38.885636 24.559349L169.079348 612.092018c0 28.257577 10.629081 27.629267 38.885636 27.629267l570.208726 0c28.257577 0 29.67588 0.62831 29.67588-27.629267l0-47.614437 0-71.063499 0-3.304256 0.290619 0c1.583055-9.69685 9.975189-17.104563 20.1182-17.104563s18.535145 7.408737 20.1182 17.104563l0.290619 0 0 3.304256 0 71.063499 0 67.815525C848.667228 660.550683 825.760518 683.458415 797.501918 683.458415zM893.672234 299.718591c-0.002047 0.243547 0.004093 0.485047-0.007163 0.728594-0.082888 2.899026-0.811482 5.733585-2.190899 8.283664-1.017166 2.038426-2.365884 3.970428-4.081968 5.687536-0.989537 0.989537-2.047636 1.861394-3.1569 2.619664L686.356538 514.916814c-7.390317 7.390317-19.84293 6.919597-27.812439-1.049912-7.969509-7.970532-8.44023-20.423145-1.048889-27.811416L822.832839 320.717857 410.518213 320.717857c-11.271718 0-20.408819-9.138124-20.408819-20.408819 0-11.270694 9.138124-20.408819 20.408819-20.408819l413.493475 0L657.49521 113.382719c-7.391341-7.389294-6.92062-19.84293 1.048889-27.813462 7.969509-7.968485 20.422122-8.44023 27.812439-1.048889l197.880813 197.87979c1.108241 0.757247 2.167363 1.630127 3.155876 2.618641 1.718131 1.718131 3.064802 3.650133 4.081968 5.688559 1.38044 2.550079 2.108011 5.383614 2.190899 8.28264C893.676327 299.23252 893.670188 299.475044 893.672234 299.718591z"  horiz-adv-x="1024" />

    
    <glyph glyph-name="tongzhi1" unicode="&#58974;" d="M904.293487 10.250163l-75.138399 132.191607L829.155088 418.718299c0 57.605993-20.926644 118.339945-58.927286 171.013-38.656232 53.5865-92.928659 95.517313-152.813207 118.068608-0.348862 0.131455-0.701094 0.254484-1.055012 0.369086-1.373537 0.44324-6.476693 2.072946-13.974691 4.228473l0 9.201858c0 49.846771-40.553905 90.400675-90.400675 90.400675s-90.400675-40.553905-90.400675-90.400675l0-8.539527c-6.983975-1.995421-11.411316-3.414462-11.918598-3.579624-0.26291-0.084266-0.52582-0.175273-0.78536-0.269652-60.799679-22.015362-115.999032-63.900671-155.428827-117.938838-38.711848-53.052253-60.029487-114.333934-60.029487-172.55507L193.42127 142.438399l-80.40503-141.509752c-9.673749-16.865018-9.613077-37.862445 0.166847-54.806673 9.720938-16.834682 27.915675-27.292105 47.485634-27.292105L359.363136-81.170133c11.392777-73.990695 75.494002-130.829866 152.622766-130.829866 77.128764 0 141.231674 56.839172 152.622766 130.829866l198.660709 0c30.286923 0 54.926331 24.609073 54.926331 54.857233C918.195708-12.580895 913.286365 0.261259 904.293487 10.250163zM511.985902 764.810982c23.088912 0 42.006652-18.203164 43.156042-41.010627-4.843616 0.916815-9.747903 1.756106-14.625225 2.465626-2.089799 0.303358-4.177913 0.320211-6.215468 0.077525-0.840976 0.123029-1.697119 0.251113-2.56506 0.384253-6.028397 0.910074-12.860693 1.939806-20.481719 1.939806-7.614285 0-14.44321-1.029732-20.469922-1.93812-0.738171-0.111231-1.46623-0.220777-2.184177-0.326952-2.111709 0.284819-4.275662 0.28819-6.446357-0.016853-4.44588-0.625254-8.8985-1.353314-13.288764-2.150471C470.228678 746.837022 489.043613 764.810982 511.985902 764.810982zM511.985902-164.810981c-51.02144 0-93.805026 35.829947-104.586031 83.640849l209.173748 0C605.790928-128.981034 563.007342-164.810981 511.985902-164.810981zM863.269377-33.981115 160.670406-33.981115c-2.765614 0-5.302023 1.419041-6.61826 3.695911-1.403873 2.43192-1.442636 5.394716-0.05393 7.818209l83.532988 147.014014c2.019016 3.550974 3.080769 7.568781 3.080769 11.655687L240.611973 418.718299c0 102.123776 79.029807 207.786728 183.907399 245.969384 3.448169 1.088718 30.570057 9.510272 57.92789 14.008397 1.628021-0.178644 3.288063-0.190441 4.956532-0.018539 3.682429 0.374141 7.105318 0.891535 10.41529 1.390391 5.020574 0.75671 9.356908 1.410615 13.432017 1.410615 4.08185 0 8.419869-0.653905 13.443814-1.4123 3.306602-0.498855 6.72612-1.014564 10.403493-1.388705 1.510049-0.153364 3.011671-0.160106 4.488013-0.02865 28.392621-4.755979 57.364992-13.819641 61.736718-15.213402 103.027108-39.055653 180.644616-144.159079 180.644616-244.71719l0-282.513908c0-4.088591 1.061753-8.106399 3.082454-11.659058l79.663489-140.151383c1.112313-1.958344 2.501018-3.749842 4.122298-5.31382 1.400503-1.353314 2.17238-3.266154 2.17238-5.391345C871.006691-30.612156 867.609081-33.981115 863.269377-33.981115z"  horiz-adv-x="1024" />

    
    <glyph glyph-name="zan" unicode="&#58899;" d="M883.069529 609.457409c-47.178415 45.274046-109.900819 70.216061-176.61411 70.216061s-120.187073-23.000807-167.368557-68.272806c-0.018419-0.033769-0.053212-0.068561-0.068561-0.104377-0.019443 0-0.019443 0-0.034792 0L512.184195 578.895407l-26.815685 30.459671c-0.019443 0.034792-0.054235 0.069585-0.070608 0.069585-0.019443 0-0.019443 0-0.019443 0.033769-47.179438 45.274046-100.654243 70.216061-167.367534 70.216061-66.728641 0-129.451045-24.943039-176.631507-70.216061-47.164088-45.305768-73.146804-105.529264-73.146804-169.571731 0-64.004605 25.947923-124.194332 73.077219-169.467354l331.562825-320.963441c10.425423-10.094895 24.614558-15.78549 39.40949-15.78549 14.794931 0 28.984067 5.690594 39.410513 15.78549l331.543382 320.928649c47.147716 45.273022 73.096662 105.497542 73.096662 169.502147C956.234752 503.928145 930.251013 564.151641 883.069529 609.457409z"  horiz-adv-x="1024" />

    
    <glyph glyph-name="shijian" unicode="&#58890;" d="M511.339456 746.915679c-246.583025 0-446.494077-199.930495-446.494077-446.514543 0-246.563582 199.911052-446.494077 446.494077-446.494077s446.494077 199.930495 446.494077 446.494077C957.834556 546.985184 757.922481 746.915679 511.339456 746.915679zM511.339456-34.459444c-184.630021 0-334.881047 150.211117-334.881047 334.860581 0 184.628998 150.251026 334.881047 334.881047 334.881047 184.670953 0 334.88207-150.252049 334.88207-334.881047C846.221526 115.751672 696.010409-34.459444 511.339456-34.459444zM567.155692 323.515576 567.155692 523.669152c0 30.845519-24.969695 55.796794-55.816237 55.796794-30.845519 0-55.816237-24.951275-55.816237-55.796794l0-223.449141c0.040932-15.361873 6.279007-29.27065 16.412808-39.323611l111.550609-111.594611c10.902304-10.899234 25.194822-16.330944 39.48734-16.330944 14.272052 0 28.564569 5.431709 39.464827 16.330944 21.782096 21.801539 21.782096 57.150628 0 78.95012L567.155692 323.515576z"  horiz-adv-x="1024" />

    
    <glyph glyph-name="zhifubao" unicode="&#59004;" d="M826.028178 166.954894c88.693053 161.26482 120.946646 314.457186 120.946646 314.457186l-16.129159 0 0 0-137.069506 0-145.134086 0 0 112.888366 354.773785 0 0 48.374879L648.642073 642.675325 648.642073 812 487.383553 812l0-169.324675-322.520191 0 0-48.374879 322.520191 0 0-112.888366L213.239815 481.41208l0-48.376454 556.348904 0c0-8.06458 0-8.06458-8.06458-16.12286 0-56.441033-40.311874-137.074231-72.563893-201.575119C277.745428 376.597742 156.797207 279.838535 124.545188 263.715675-149.593825 70.205136 108.423903-171.689732 148.740502-163.625152c290.269747-64.504038 475.714132 56.441033 604.725358 209.641274 8.05828-8.066154 16.12286-8.066154 24.18744-8.066154 88.693053-48.374879 516.032306-249.949998 516.032306-249.949998L1293.685605 29.885387C1229.178417 29.885387 995.351278 110.51701 826.028178 166.954894L826.028178 166.954894zM616.390054 94.391c-201.575119-258.016153-443.460538-177.386105-483.778712-161.255371-96.751333 24.18744-129.004927 201.575119-8.06458 258.016153 201.575119 64.499314 378.962799-8.06458 507.97245-72.570193C624.453059 102.45558 616.390054 94.391 616.390054 94.391L616.390054 94.391zM616.390054 94.391"  horiz-adv-x="1294" />

    
    <glyph glyph-name="htmal5icon18" unicode="&#58939;" d="M703.335746 345.733465l-153.069211 0 0-153.069211-76.535117 0 0 153.069211-153.069211 0 0 76.535117 153.069211 0 0 153.069211 76.535117 0 0-153.069211 153.069211 0L703.335746 345.733465zM511.998977 766.672516c-210.469526 0-382.672516-172.201967-382.672516-382.672516s172.20299-382.672516 382.672516-382.672516c210.469526 0 382.672516 172.201967 382.672516 382.672516S722.469526 766.672516 511.998977 766.672516z"  horiz-adv-x="1024" />

    
    <glyph glyph-name="twitter" unicode="&#59549;" d="M1024.032 701.568c-37.664-16.704-78.176-28-120.672-33.088 43.36 26.016 76.672 67.168 92.384 116.224-40.608-24.064-85.568-41.568-133.408-50.976-38.336 40.832-92.928 66.336-153.344 66.336-116.032 0-210.08-94.048-210.08-210.08 0-16.48 1.856-32.512 5.44-47.872-174.592 8.768-329.408 92.416-433.024 219.52-18.08-31.04-28.448-67.104-28.448-105.632 0-72.896 37.088-137.184 93.472-174.88-34.432 1.088-66.816 10.528-95.168 26.272-0.032-0.864-0.032-1.76-0.032-2.656 0-101.792 72.416-186.688 168.512-206.016-17.632-4.8-36.192-7.36-55.36-7.36-13.536 0-26.688 1.312-39.52 3.776 26.752-83.456 104.32-144.192 196.256-145.888-71.904-56.352-162.496-89.92-260.928-89.92-16.96 0-33.664 0.992-50.112 2.944 92.96-59.616 203.392-94.4 322.048-94.4 386.432 0 597.728 320.128 597.728 597.76 0 9.12-0.192 18.176-0.608 27.168C960.256 622.464 995.872 659.456 1024.032 701.568z"  horiz-adv-x="1025" />

    
    <glyph glyph-name="iconfontunie62c" unicode="&#58962;" d="M928 768l-832 0c-53.024 0-96-42.976-96-96l0-576c0-52.992 42.976-96 96-96l832 0c53.024 0 96 43.008 96 96l0 576c0 53.024-42.976 96-96 96zM87.712 64.32l-23.392 23.424 263.968 263.936 23.392-23.424-263.968-263.936zM936.288 64.32l-263.968 263.936 23.392 23.424 263.968-263.936-23.392-23.424zM544 277.6l0-21.6-64 0 0 21.6-415.904 385.6 40.704 40.704 407.2-377.536 407.2 377.536 40.704-40.704-415.904-385.6z"  horiz-adv-x="1024" />

    
    <glyph glyph-name="weixin" unicode="&#59365;" d="M1024 259.968c0 141.888-141.866667 257.429333-301.461333 257.429333-169.088 0-301.866667-115.541333-301.866667-257.429333 0-142.250667 132.778667-257.386667 301.866667-257.386667 35.370667 0 71.146667 9.024 106.496 17.642667l97.450667-53.418667-26.666667 88.789333C970.922667 109.034667 1024 180.16 1024 259.968zM624.618667 304.384c-17.642667 0-35.328 17.664-35.328 35.392 0 17.621333 17.685333 35.328 35.328 35.328 26.752 0 44.458667-17.706667 44.458667-35.328C669.077333 322.048 651.370667 304.384 624.618667 304.384zM820.010667 304.384c-17.664 0-35.306667 17.664-35.306667 35.392 0 17.621333 17.642667 35.328 35.306667 35.328 26.709333 0 44.416-17.706667 44.416-35.328C864.426667 322.048 846.293333 304.384 820.010667 304.384zM693.248 548.757333c11.626667 0 23.296-0.810667 34.901333-2.005333-31.274667 146.133333-187.392 254.464-365.674667 254.464C163.370667 801.216 0 665.557333 0 492.970667c0-99.562667 54.208-181.418667 144.917333-244.864L108.8 138.965333l126.826667 63.786667c45.354667-8.810667 81.877333-18.069333 126.848-18.069333 11.221333 0 22.506667 0.405333 33.749333 1.557333-7.232 24.128-11.242667 49.749333-11.242667 75.882667C384.96 420.309333 521.066667 548.757333 693.248 548.757333zM498.133333 647.104c27.285333 0 45.333333-18.069333 45.333333-45.376 0-27.264-18.069333-45.333333-45.333333-45.333333-27.306667 0-54.570667 18.069333-54.570667 45.333333C443.968 629.056 471.210667 647.104 498.133333 647.104zM244.458667 556.437333c-27.306667 0-54.570667 18.048-54.570667 45.333333 0 27.306667 27.285333 45.354667 54.570667 45.354667 27.328 0 45.397333-18.069333 45.397333-45.354667C289.834667 574.869333 271.786667 556.437333 244.458667 556.437333z"  horiz-adv-x="1024" />

    
    <glyph glyph-name="biaoge1" unicode="&#58886;" d="M855.466667 896 168.533333 896C75.605333 896 0 820.394667 0 727.466667l0-686.890667C0-52.394667 75.605333-128 168.533333-128l686.933333 0c92.928 0 168.533333 75.605333 168.533333 168.576L1024 727.466667C1024 820.394667 948.394667 896 855.466667 896zM318.933333 405.333333 42.666667 405.333333l0 202.666667 276.266667 0L318.933333 405.333333zM361.6 608 981.333333 608 981.333333 405.333333 361.6 405.333333 361.6 608zM42.666667 362.666667l276.266667 0 0-202.688L42.666667 159.978667 42.666667 362.666667zM361.6 362.666667 981.333333 362.666667l0-202.688L361.6 159.978667 361.6 362.666667zM981.333333 727.466667l0-76.8L361.6 650.666667 361.6 850.133333c0 1.130667-0.469333 2.112-0.64 3.2L855.466667 853.333333C924.885333 853.333333 981.333333 796.885333 981.333333 727.466667zM168.533333 853.333333l151.061333 0c-0.170667-1.088-0.64-2.069333-0.64-3.2l0-199.466667L42.666667 650.666667 42.666667 727.466667C42.666667 796.885333 99.114667 853.333333 168.533333 853.333333zM42.666667 40.576l0 76.736 276.266667 0 0-199.445333c0-1.152 0.469333-2.133333 0.64-3.2L168.533333-85.333333C99.114667-85.333333 42.666667-28.885333 42.666667 40.576zM855.466667-85.333333 360.96-85.333333c0.170667 1.088 0.64 2.069333 0.64 3.2l0 199.445333L981.333333 117.312l0-76.736C981.333333-28.885333 924.885333-85.333333 855.466667-85.333333z"  horiz-adv-x="1024" />

    
    <glyph glyph-name="dashboard1" unicode="&#58935;" d="M512.240873 891.674764C232.100073 891.674764 4.165818 663.740509 4.165818 383.600873s227.934255-508.072727 508.073891-508.072727c280.139636 0 508.072727 227.933091 508.072727 508.072727S792.379345 891.674764 512.240873 891.674764L512.240873 891.674764zM859.731782 107.113891c-1.4592 4.7616-3.682909 9.333527-7.460073 13.111855l-28.550982 28.550982c-6.190545 6.191709-14.322036 9.303273-22.4512 9.303273s-16.254836-3.111564-22.450036-9.303273c-12.412509-12.416-12.412509-32.488727 0-44.901236l28.550982-28.546327c4.667345-4.672 10.5728-7.050473 16.605091-8.165236-80.273455-79.128436-190.368582-128.126836-311.734691-128.126836-121.083345 0-230.922473 48.802909-311.195927 127.624145 7.050473 0.694691 13.911273 3.3024 19.2768 8.667927l28.547491 28.546327c6.2208 6.221964 9.333527 14.351127 9.333527 22.4512 0 8.094255-3.112727 16.254836-9.304436 22.450036-12.417164 12.412509-32.484073 12.412509-44.900073 0l-28.547491-28.550982c-4.666182-4.667345-7.020218-10.507636-8.160582-16.539927C111.401891 172.461382 75.964509 258.202764 69.294545 351.8464l61.890327 0c17.558109 0 31.754473 14.1952 31.754473 31.754473 0 17.559273-14.196364 31.754473-31.754473 31.754473L69.294545 415.355345c7.020218 98.6624 46.205673 188.434618 107.360582 258.930036l27.343127-27.343127c6.190545-6.190545 14.320873-9.303273 22.450036-9.303273 8.129164 0 16.258327 3.112727 22.448873 9.303273 12.417164 12.417164 12.417164 32.485236 0 44.9024l-27.343127 27.341964c70.496582 61.156073 160.266473 100.375273 258.928873 107.361745l0-61.890327c0-17.559273 14.196364-31.754473 31.755636-31.754473 17.558109 0 31.754473 14.1952 31.754473 31.754473L543.993018 826.5472c219.773673-15.625309 395.565382-191.418182 411.190691-411.193018l-61.890327 0c-17.559273 0-31.754473-14.194036-31.754473-31.754473 0-17.558109 14.1952-31.754473 31.754473-31.754473l61.890327 0C948.644073 259.7248 914.096873 175.290182 859.731782 107.113891L859.731782 107.113891zM710.103273 626.241164 552.948364 437.645964c-12.382255 5.906618-26.103855 9.465018-40.708655 9.465018-52.521891 0-95.264582-42.742691-95.264582-95.264582s42.742691-95.264582 95.264582-95.264582c52.520727 0 95.263418 42.742691 95.263418 95.264582 0 14.8608-3.712 28.736-9.814109 41.313745 0.735418 0.699345 1.7792 1.014691 2.448291 1.873455l158.772364 190.526836c11.237236 13.497018 9.398691 33.533673-4.066909 44.741818C741.348073 641.480145 721.345164 639.671855 710.103273 626.241164L710.103273 626.241164zM543.994182 320.091927l-63.510109 0 0 63.508945 63.510109 0L543.994182 320.091927 543.994182 320.091927zM543.994182 320.091927"  horiz-adv-x="1024" />

    
    <glyph glyph-name="tianqizitiku22" unicode="&#58910;" d="M683.52 60.288c0-29.056-23.552-52.544-52.608-52.544s-52.608 23.552-52.608 52.544c0 29.056 52.608 107.456 52.608 107.456S683.52 89.344 683.52 60.288zM340.672 60.288c0-29.056-23.552-52.544-52.608-52.544S235.52 31.232 235.52 60.288c0 29.056 52.608 107.456 52.608 107.456S340.672 89.344 340.672 60.288zM921.024 486.912c-1.408 9.856-4.032 19.328-6.784 28.736-5.056 17.344-12.352 33.536-21.568 48.704-35.648 58.688-99.264 98.624-172.672 99.648-8.896 15.104-19.456 28.864-30.848 41.728-11.456 12.928-24.192 24.384-37.76 34.88C630.144 756.992 606.848 770.816 581.632 780.48 565.696 786.56 549.056 791.04 532.032 794.048 516.416 796.864 500.608 798.784 484.416 798.784c-130.496 0-241.216-90.56-267.648-216.96C149.44 559.424 100.672 495.936 100.672 421.12c0-93.44 76.032-169.408 169.408-169.408 33.728 0 65.792 9.728 93.504 28.16C375.552 273.984 388.032 269.312 400.64 265.216l42.368 48.064c-22.848 4.48-45.056 12.16-65.344 23.68-8.128 4.608-17.536 4.736-25.536 1.28C347.584 337.472 343.168 335.744 339.264 332.672 319.36 317.12 295.424 308.864 270.144 308.864c-61.888 0-112.256 50.368-112.256 112.256 0 61.888 50.368 112.256 112.256 112.256 31.232 0 61.312-13.184 82.496-36.096 10.688-11.584 28.8-12.288 40.384-1.6 11.584 10.688 12.352 28.8 1.6 40.384-30.144 32.64-72.192 52.16-116.416 54.272 27.84 89.152 110.208 151.296 206.272 151.296 6.08 0 12.16-0.576 18.176-1.088C518.72 739.2 534.4 736 549.568 731.2 578.816 721.92 605.568 706.24 628.48 685.888c10.496-9.344 20.48-19.392 29.056-30.848-5.12-1.536-10.112-3.456-15.104-5.376C636.16 647.232 630.336 643.712 624.32 640.704 619.328 638.144 614.08 636.16 609.28 633.216c-9.024-5.504-17.792-11.52-25.92-18.432-12.032-10.24-13.44-28.288-3.2-40.32 10.24-12.032 28.288-13.44 40.32-3.2 4.928 4.224 10.368 7.744 15.808 11.2 14.144 9.216 29.696 15.744 46.016 19.712 11.392 2.752 22.976 4.672 34.816 4.672 55.552 0 103.68-30.784 129.28-75.968 7.104-12.544 12.8-25.984 16-40.384 0.448-2.112 0.384-4.416 0.768-6.592 1.536-8.512 2.944-17.088 2.944-26.048 0-5.376-0.32-10.624-0.832-15.808-7.936-74.752-71.36-133.184-148.16-133.184-33.28 0-64.768 10.752-91.008 31.04C613.632 349.568 595.712 347.264 586.048 334.72 585.856 334.528 585.792 334.272 585.6 334.016c-6.912-3.648-14.592-5.44-21.824-8.32L536.832 257.28c25.28 4.992 49.856 13.056 72.768 24.832 32.32-19.904 69.056-30.4 107.584-30.4 107.648 0 196.16 83.008 205.248 188.352 0.512 5.888 0.896 11.84 0.896 17.856C923.328 467.776 922.368 477.376 921.024 486.912zM520.064 325.76c2.048 5.248 0.704 6.08-3.008 1.856l-150.592-170.944c-3.712-4.224-2.304-8.896 3.072-10.432l61.12-17.088c5.376-1.536 8.256-7.04 6.4-12.352l-50.944-142.912c-1.856-5.312-0.32-6.208 3.456-2.112l165.632 181.44c3.776 4.16 2.496 8.832-2.88 10.496l-76.096 22.976c-5.376 1.6-8.064 7.232-6.016 12.416L520.064 325.76z"  horiz-adv-x="1024" />

    
    <glyph glyph-name="tishi" unicode="&#59045;" d="M493.815337 657.809109l0 0.098237c-100.144838 0-181.619454-81.449034-181.668573-181.579545 0-0.032746-0.005117-0.060375-0.005117-0.093121 0-10.590196 8.587586-19.167548 19.167548-19.167548 10.590196 0 19.167548 8.578376 19.167548 19.167548l0 0c0 78.608336 63.612807 142.615115 142.060483 143.304823 0.112564 0 0.220011-0.016373 0.332575-0.016373 10.585079 0 19.168572 8.584516 19.168572 19.169595C512.038374 648.959557 503.956302 657.314853 493.815337 657.809109zM800.615838 476.199888c0 160.198585-130.159432 290.559609-290.281269 290.906509l0 0.007163c-0.105401 0-0.210801-0.002047-0.317225-0.004093-0.104377 0.002047-0.209778 0.004093-0.316202 0.004093l0-0.007163c-160.118767-0.345877-290.278199-130.706901-290.278199-290.906509 0-103.757109 57.760518-199.825095 154.513096-256.989025 2.064009-1.216711 6.858198-4.510734 8.570189-5.830799 4.743024-4.830005 8.280594-10.392698 10.924817-16.57449l43.85788 5.624091c-4.619204 15.265682-12.274558 29.557176-24.928762 42.092677-4.174066 4.137227-15.08251 10.992355-16.486486 11.82328-83.48439 49.321312-133.323495 131.510196-133.323495 219.85529 0 136.524396 110.982674 247.610424 247.466138 247.781316 136.485511-0.170892 247.470231-111.25692 247.470231-247.781316 0-88.345094-49.840128-170.532955-133.320425-219.85529-1.409093-0.831948-12.33391-7.699356-16.488533-11.82328-7.034207-6.966669-12.520151-14.476713-16.804734-22.390963l74.854848 9.602705C750.601748 289.816944 800.615838 379.673461 800.615838 476.199888zM510.017344 44.023912c-13.773701 0.064468-26.565029 4.341888-37.162388 11.596106l-53.169967-6.64535c19.631106-28.826536 52.631708-47.859008 90.017176-48.069809l0-0.019443c0.106424 0 0.211824 0.010233 0.316202 0.010233 0.106424 0 0.211824-0.010233 0.317225-0.010233l0 0.019443c47.007617 0.267083 87.09973 30.272467 102.367459 72.188112l-53.28253-6.65456C547.298436 52.775226 529.65459 44.117033 510.017344 44.023912zM394.204665 135.62312l0.002047-0.022513 240.999866 30.825053-0.002047 0.022513c1.172709 0.11154 2.351558 0.322341 3.523243 0.660032 10.1645 2.944052 16.017812 13.57211 13.083993 23.73968-2.728134 9.406231-12.034081 15.106046-21.462824 13.576203l-0.005117 0.027629-241.001913-30.824029 0.004093-0.023536c-0.969071-0.125867-1.937119-0.299829-2.901073-0.580215-6.125511-1.772366-10.683317-6.340405-12.69616-11.905144-1.338485-3.673669-1.553379-7.791453-0.38374-11.834536C376.027677 140.083711 384.989793 134.440178 394.204665 135.62312zM659.613454 125.052366c-2.728134 9.410324-12.029988 15.111163-21.463848 13.580297l-0.005117 0.027629L397.147694 107.836263l0.002047-0.023536c-0.969071-0.125867-1.940189-0.303922-2.90312-0.579191-6.125511-1.77339-10.683317-6.341429-12.69616-11.910261-1.333368-3.673669-1.554402-7.791453-0.38374-11.830443 2.664689-9.205663 11.623735-14.849196 20.838607-13.661138l0.004093-0.022513 240.997819 30.825053-0.00307 0.019443c1.172709 0.11154 2.351558 0.322341 3.523243 0.663102C656.697031 104.255715 662.551366 114.883773 659.613454 125.052366z"  horiz-adv-x="1024" />

    
    <glyph glyph-name="dui" unicode="&#59046;" d="M1296.750163 651.608623c26.802808 27.289868 40.869485 61.351804 42.480653 101.797128 1.32248 40.771105-11.094321 74.834654-38.25678 102.477722-26.480252 27.286643-59.480978 40.771105-98.086119 40.092124-38.930922-0.999924-71.930035-14.837586-98.413513-42.448398L473.330276 206.031084l-217.144842 220.434916c-26.480252 27.643067-59.511621 41.801672-98.4119 42.480653-38.57611 0.999924-71.609092-12.484538-98.123213-40.12438-27.125365-27.643067-40.54209-59.997068-41.511372-97.415202-0.999924-37.737464 12.418414-70.441438 39.256704-97.73292l310.942576-321.556288c26.83829-27.288256 61.832413-40.76788 104.992047-40.093737 43.190277 1.00315 78.476314 14.808556 104.959792 42.446785l-8.483228-9.094472L1296.750163 651.608623 1296.750163 651.608623z"  horiz-adv-x="1358" />

    
    <glyph glyph-name="dianjixihuan" unicode="&#58938;" d="M601.881588 26.171312c0 0-68.00279-4.77577-92.550883-69.290109l0 49.839105c72.357981 40.930201 82.009805 84.7318 82.554204 101.262288 0.099261 1.880837 0.148379 3.736091 0.049119 5.616928-1.533936 26.355251-23.855314 46.548152-49.888224 45.137013-13.511735-0.766456-25.241894-7.274684-33.308617-16.950044-0.446162-0.420579-0.841158-0.916882-1.287319-1.360997-2.128477-2.202155-4.108574-4.529153-5.79089-7.05365-1.929955 2.795673-4.058432 5.443989-6.483668 7.794523-0.246617 0.198521-0.396019 0.420579-0.593518 0.6191-8.116865 9.724479-19.797905 16.183588-33.358759 16.950044-26.03291 1.411139-48.354288-18.781762-49.839105-45.137013-0.099261-1.880837-0.049119-3.736091 0.050142-5.616928 0.494257-16.45681 10.146081-60.084447 82.009805-100.965529l0-46.919613c-25.637913 61.297065-91.166349 66.072835-91.166349 66.072835-4.65195-103.094006 64.588017-121.727389 91.166349-125.093043l0-0.74292 15.886829 0 0 0.569982C534.669814-96.224296 606.681918-78.901769 601.881588 26.171312zM690.968579 430.998407c-17.323551-0.99056-32.269961-9.255805-42.614563-21.702278-0.296759-0.24764-0.494257-0.51984-0.741897-0.792039-3.119037-2.994194-5.89015-6.384407-8.315386-9.972119-0.197498 0.246617-0.396019 0.445138-0.593518 0.692778-0.149403-0.24764-0.396019-0.446162-0.544399-0.692778-2.474354 3.587712-5.196349 6.977925-8.314363 9.972119-0.297782 0.273223-0.49528 0.544399-0.792039 0.792039-10.343579 12.446473-25.291013 20.711717-42.61354 21.702278-33.308617 1.781576-61.866023-24.053835-63.797002-57.757448-0.148379-2.400676-0.099261-4.776793 0.050142-7.17747 0.692778-21.058618 13.016455-76.887135 104.924701-129.176035l0-1.855254c3.711532-1.163499 7.176446-2.350534 11.086499-3.439332 3.90903 1.088798 7.373944 2.276856 11.086499 3.439332l0 1.855254c91.907223 52.289923 104.281041 108.117416 104.924701 129.176035 0.148379 2.400676 0.197498 4.776793 0.049119 7.17747C752.834602 406.944572 724.277196 432.779983 690.968579 430.998407zM402.772808 282.222989c-10.740622-0.594541-19.945261-5.717212-26.37981-13.412474-0.197498-0.172939-0.296759-0.346901-0.494257-0.494257-1.930979-1.856277-3.613294-3.959172-5.14723-6.186909-0.099261 0.148379-0.24764 0.272199-0.346901 0.446162-0.099261-0.173962-0.246617-0.297782-0.345877-0.446162-1.484817 2.227738-3.218298 4.329609-5.14723 6.186909-0.149403 0.148379-0.296759 0.321318-0.446162 0.494257-6.433526 7.696286-15.689331 12.817933-26.378787 13.412474-20.639063 1.113357-38.308491-14.872732-39.495526-35.733852-0.099261-1.484817-0.050142-2.969635 0-4.455475 0.445138-13.016455 8.066723-47.586808 64.984037-79.95603l0-1.137916c2.276856-0.717338 4.454452-1.460258 6.829546-2.127454 2.425236 0.667196 4.602831 1.410116 6.880711 2.127454l0 1.137916c56.866149 32.369222 64.537875 66.939575 64.933895 79.95603 0.099261 1.484817 0.149403 2.969635 0.050142 4.455475C441.079252 267.350257 423.410847 283.336346 402.772808 282.222989zM416.381757 610.854705c-19.648502-1.11438-36.624129-10.492982-48.354288-24.598234-0.346901-0.272199-0.544399-0.593518-0.890276-0.890276-3.515057-3.415796-6.632047-7.251148-9.403161-11.30958-0.197498 0.272199-0.446162 0.494257-0.64366 0.766456-0.197498-0.272199-0.446162-0.494257-0.64366-0.766456-2.772136 4.058432-5.89015 7.893784-9.453303 11.30958-0.296759 0.296759-0.543376 0.618077-0.841158 0.890276-11.729136 14.105253-28.705785 23.483854-48.354288 24.598234-37.762045 2.028193-70.131267-27.270087-72.308863-65.479317-0.197498-2.721994-0.099261-5.41943 0.050142-8.141424 0.74292-23.879873 14.748912-87.181595 118.980835-146.474003l0-2.103918c4.206812-1.310855 8.165983-2.671852 12.571317-3.910053 4.405333 1.238201 8.364505 2.599198 12.570293 3.910053L369.661689 390.759961c104.231923 59.291384 118.188796 122.594129 118.980835 146.474003 0.148379 2.721994 0.197498 5.41943 0.049119 8.141424C486.514047 583.584618 454.145849 612.883921 416.381757 610.854705zM742.09398 847.072661c-24.696472-1.385557-45.979194-13.189394-60.777225-30.90794-0.396019-0.346901-0.64366-0.74292-1.039679-1.113357-4.454452-4.306072-8.364505-9.106402-11.877515-14.229073-0.24764 0.346901-0.544399 0.618077-0.792039 0.964978-0.246617-0.346901-0.544399-0.618077-0.841158-0.964978-3.464915 5.122671-7.373944 9.923-11.82942 14.229073-0.396019 0.370437-0.692778 0.766456-1.087774 1.113357-14.748912 17.718547-36.030611 29.523407-60.728106 30.90794-47.464011 2.549056-88.146573-34.273595-90.918709-82.280981-0.197498-3.415796-0.099261-6.804986 0.050142-10.220782 0.989537-30.016641 18.559705-109.576651 149.517315-184.088692l0-2.622734c5.29561-1.657756 10.29446-3.365654 15.83771-4.925173 5.54325 1.558495 10.5421 3.266393 15.788591 4.925173l0 2.622734c130.958634 74.511018 148.528801 154.072051 149.517315 184.088692 0.197498 3.415796 0.296759 6.804986 0.099261 10.220782C830.241576 812.799066 789.557992 849.621716 742.09398 847.072661z"  horiz-adv-x="1024" />

    
    <glyph glyph-name="iconset0285" unicode="&#59064;" d="M810.666667 618.666667 213.333333 618.666667c-93.866667 0-170.666667-76.8-170.666667-170.666667l0-85.333333c0-93.866667 76.8-170.666667 170.666667-170.666667l597.333333 0c93.866667 0 170.666667 76.8 170.666667 170.666667l0 85.333333C981.333333 541.866667 904.533333 618.666667 810.666667 618.666667zM411.733333 497.066667c12.8 0 19.2-8.533333 19.2-19.2 0-10.666667-8.533333-19.2-19.2-19.2-12.8 0-19.2 8.533333-19.2 19.2C392.533333 488.533333 401.066667 497.066667 411.733333 497.066667zM430.933333 443.733333 430.933333 320l-38.4 0 0 123.733333L430.933333 443.733333zM330.666667 320l-40.533333 0-14.933333 72.533333c-2.133333 17.066667-6.4 34.133333-8.533333 53.333333l0 0c-2.133333-19.2-6.4-36.266667-8.533333-53.333333L241.066667 320 200.533333 320l-38.4 170.666667 40.533333 0 12.8-70.4c4.266667-21.333333 6.4-42.666667 10.666667-59.733333l0 0c2.133333 19.2 6.4 38.4 10.666667 59.733333l14.933333 70.4 40.533333 0 12.8-72.533333c4.266667-19.2 6.4-38.4 8.533333-57.6l0 0c2.133333 19.2 6.4 38.4 8.533333 59.733333l12.8 70.4 38.4 0L330.666667 320zM938.666667 362.666667c0-70.4-57.6-128-128-128l-170.666667 0L384 234.666667c70.4 0 128 57.6 128 128l0 85.333333c0 70.4 57.6 128 128 128l170.666667 0c70.4 0 128-57.6 128-128L938.666667 362.666667zM622.933333 320l38.4 0 0 68.266667 59.733333 0 0 32-59.733333 0 0 38.4 64 0L725.333333 490.666667l-100.266667 0L625.066667 320zM787.2 497.066667c-12.8 0-19.2-8.533333-19.2-19.2 0-10.666667 8.533333-19.2 19.2-19.2 12.8 0 19.2 8.533333 19.2 19.2C808.533333 488.533333 800 497.066667 787.2 497.066667zM770.133333 320l36.266667 0 0 123.733333-36.266667 0L770.133333 320z"  horiz-adv-x="1024" />

    
    <glyph glyph-name="iconset0466" unicode="&#59225;" d="M384 256c-23.466667 0-42.666667-19.2-42.666667-42.666667 0-23.466667 19.2-42.666667 42.666667-42.666667s42.666667 19.2 42.666667 42.666667C426.666667 236.8 407.466667 256 384 256zM256 42.666667c-23.466667 0-42.666667-19.2-42.666667-42.666667 0-23.466667 19.2-42.666667 42.666667-42.666667s42.666667 19.2 42.666667 42.666667C298.666667 23.466667 279.466667 42.666667 256 42.666667zM170.666667 170.666667c-23.466667 0-42.666667-19.2-42.666667-42.666667s19.2-42.666667 42.666667-42.666667 42.666667 19.2 42.666667 42.666667S194.133333 170.666667 170.666667 170.666667zM512 85.333333c-23.466667 0-42.666667-19.2-42.666667-42.666667s19.2-42.666667 42.666667-42.666667 42.666667 19.2 42.666667 42.666667S535.466667 85.333333 512 85.333333zM725.333333 0c-23.466667 0-42.666667-19.2-42.666667-42.666667s19.2-42.666667 42.666667-42.666667 42.666667 19.2 42.666667 42.666667S748.8 0 725.333333 0zM725.333333 170.666667c0 23.466667-19.2 42.666667-42.666667 42.666667s-42.666667-19.2-42.666667-42.666667c0-23.466667 19.2-42.666667 42.666667-42.666667S725.333333 147.2 725.333333 170.666667zM853.333333 633.6c0 2.133333 0 4.266667 0 6.4 0 70.4-57.6 128-128 128-32 0-61.866667-12.8-83.2-32C595.2 806.4 516.266667 853.333333 426.666667 853.333333 298.666667 853.333333 192 759.466667 172.8 635.733333 98.133333 616.533333 42.666667 550.4 42.666667 469.333333c0-93.866667 76.8-170.666667 170.666667-170.666667l597.333333 0c93.866667 0 170.666667 76.8 170.666667 170.666667C981.333333 548.266667 925.866667 616.533333 853.333333 633.6zM810.666667 341.333333 213.333333 341.333333c-70.4 0-128 57.6-128 128 0 59.733333 40.533333 110.933333 98.133333 123.733333 17.066667 4.266667 29.866667 17.066667 32 36.266667C230.4 731.733333 322.133333 810.666667 426.666667 810.666667c72.533333 0 117.333333-14.933333 157.866667-76.8 6.4-10.666667 38.4-38.4 51.2-40.533333 2.133333 0 6.4 0 6.4 0 10.666667 0 19.2 4.266667 27.733333 10.666667C684.8 716.8 704 725.333333 725.333333 725.333333c46.933333 0 85.333333-38.4 85.333333-85.333333l0-2.133333c0-19.2 12.8-38.4 32-42.666667 57.6-14.933333 96-66.133333 96-123.733333C938.666667 398.933333 881.066667 341.333333 810.666667 341.333333zM853.333333 128c-23.466667 0-42.666667-19.2-42.666667-42.666667 0-23.466667 19.2-42.666667 42.666667-42.666667s42.666667 19.2 42.666667 42.666667C896 108.8 876.8 128 853.333333 128z"  horiz-adv-x="1024" />

    
    <glyph glyph-name="shouji01" unicode="&#58956;" d="M700.462814 815.809633 322.790172 815.809633c-44.511773 0-80.929194-36.418444-80.929194-80.930217l0-701.393511c0-44.511773 36.417421-80.930217 80.929194-80.930217l377.672642 0c44.512796 0 80.930217 36.418444 80.930217 80.930217L781.393032 734.879416C781.393032 779.391189 744.975611 815.809633 700.462814 815.809633zM437.146687 774.819057l148.95859 0c7.355525 0 13.31833-5.962805 13.31833-13.31833 0-7.355525-5.961782-13.317307-13.31833-13.317307L437.146687 748.18342c-7.355525 0-13.317307 5.961782-13.317307 13.317307C423.82938 768.857275 429.791162 774.819057 437.146687 774.819057zM511.627005 6.508483c-29.797653 0-53.952796 24.157189-53.952796 53.954843 0 29.797653 24.155143 53.951773 53.952796 53.951773 29.79663 0 53.954843-24.15412 53.954843-53.951773C565.580824 30.666696 541.423635 6.508483 511.627005 6.508483zM727.440236 168.367895 295.813774 168.367895 295.813774 707.901994l431.626461 0L727.440236 168.367895z"  horiz-adv-x="1024" />

    
    <glyph glyph-name="shuoming1" unicode="&#58982;" d="M234.98752 695.54176 228.72064 695.54176c2.08896 0 4.17792-0.04096 6.26688-0.04096L234.98752 695.54176zM101.21216 676.70016C87.81824 672.89088 78.47936 660.39808 78.47936 646.10304l0-540.91776c0-19.37408 16.75264-34.2016 35.38944-31.37536 74.1376 11.30496 227.61472 48.49664 369.17248-40.18176 1.92512-1.2288 3.93216-2.21184 5.9392-3.072L489.14432 605.184C441.99936 639.75424 309.53472 735.76448 101.21216 676.70016zM919.3472 676.70016c-206.68416 58.5728-340.82816-35.38944-389.3248-70.69696l-0.16384-575.11936c1.76128 0.77824 3.4816 1.6384 5.12 2.70336 141.55776 88.6784 297.61536 51.52768 371.75296 40.18176C925.32736 70.98368 942.08 85.8112 942.08 105.14432L942.08 646.10304C942.08 660.39808 932.74112 672.89088 919.3472 676.70016z"  horiz-adv-x="1024" />

    
    <glyph glyph-name="facebookfacebook51" unicode="&#58918;" d="M1024 384c0 282.763636-229.236364 512-512 512C229.236364 896 0 666.763636 0 384s229.236364-512 512-512C794.763636-128 1024 101.236364 1024 384zM46.545455 384C46.545455 641.070545 254.929455 849.454545 512 849.454545c257.070545 0 465.454545-208.384 465.454545-465.454545 0-257.070545-208.384-465.454545-465.454545-465.454545C254.929455-81.454545 46.545455 126.929455 46.545455 384zM531.642182 88.482909 531.642182 384l97.512727 0 15.406545 97.931636-112.919273 0L531.642182 531.037091c0 25.553455 8.378182 49.943273 45.056 49.943273l73.309091 0 0 97.745455-104.075636 0c-87.505455 0-111.383273-57.623273-111.383273-137.495273l0-59.252364-60.043636 0L374.504727 384l60.043636 0 0-295.517091L531.642182 88.482909z"  horiz-adv-x="1024" />

    
    <glyph glyph-name="jiantouarrow487" unicode="&#59051;" d="M714.19904 346.15296l-328.704-328.69376c-20.91008-20.91008-54.80448-20.91008-75.70432 0-20.89984 20.89984-20.89984 54.80448 0 75.70432L600.63744 384 309.80096 674.83648c-20.89984 20.91008-20.89984 54.80448 0 75.70432 20.89984 20.91008 54.79424 20.91008 75.70432 0l328.704-328.69376c10.4448-10.45504 15.6672-24.14592 15.6672-37.84704S724.64384 356.59776 714.19904 346.15296z"  horiz-adv-x="1024" />

    
    <glyph glyph-name="saelect" unicode="&#58891;" d="M512.429 384.456l-511.55 511.544h1023.099l-511.55-511.544z"  horiz-adv-x="1024" />

    
    <glyph glyph-name="wifi" unicode="&#58946;" d="M943.570179 527.096069c23.343661-23.343661 23.342638-61.239759-0.002047-84.584444-23.343661-23.343661-61.239759-23.345708-84.584444-0.002047-191.508685 191.508685-502.112816 191.490266-693.603081 0-23.343661-23.343661-61.243853-23.342638-84.587514 0.002047-23.343661 23.343661-23.342638 61.239759 0.002047 84.584444 125.523855 125.523855 271.855618 185.238888 433.580976 185.248098C680.165024 712.327794 822.10885 648.558421 943.570179 527.096069zM233.048777 374.843456c-23.343661-23.343661-23.342638-61.243853 0.002047-84.587514 23.342638-23.342638 61.239759-23.342638 84.584444 0.002047 107.425661 107.425661 281.679357 107.415428 389.095809-0.002047 23.343661-23.343661 61.239759-23.342638 84.584444 0.002047s23.345708 61.239759 0.002047 84.584444C637.20049 528.957463 387.16176 528.957463 233.048777 374.843456zM588.308967 87.252459c42.12747 42.12747 42.128493 110.125143 0.002047 152.252613-42.128493 42.128493-110.129236 42.128493-152.255683 0.002047-42.12747-42.12747-42.12747-110.12719 0.002047-152.255683C478.1828 45.123966 546.181497 45.124989 588.308967 87.252459z"  horiz-adv-x="1024" />

    
    <glyph glyph-name="tuitetwitter44" unicode="&#59144;" d="M731.554909 485.794909c0 5.166545-0.093091 10.286545-0.325818 15.36 22.109091 16.477091 41.285818 37.096727 56.459636 60.695273-20.293818-9.122909-42.077091-15.220364-64.977455-17.780364 23.365818 14.382545 41.285818 37.376 49.757091 64.977455-21.876364-13.265455-46.08-22.760727-71.819636-27.694545-20.619636 23.458909-50.036364 38.4-82.571636 38.958545-62.464 1.024-113.105455-51.758545-113.105455-117.899636 0-9.402182 0.977455-18.525091 2.932364-27.322182C413.835636 481.140364 330.472727 530.106182 274.711273 603.927273c-9.728-17.687273-15.313455-38.353455-15.313455-60.509091 0-41.890909 19.968-79.127273 50.315636-101.096727C291.141818 443.159273 273.733818 448.791273 258.466909 458.007273c0-0.512 0-1.024 0-1.536 0-58.554182 39.005091-107.613091 90.763636-119.063273-9.495273-2.699636-19.502545-4.096-29.789091-4.049455-7.307636 0.046545-14.382545 0.837818-21.271273 2.327273 14.382545-47.988364 56.180364-83.037091 105.658182-84.200727-38.725818-32.116364-87.505455-51.293091-140.474182-51.153455-9.122909 0-18.152727 0.605091-26.996364 1.722182 50.082909-34.350545 109.521455-54.365091 173.428364-54.365091C617.797818 147.642182 731.554909 328.704 731.554909 485.794909zM1024 384c0 282.763636-229.236364 512-512 512S0 666.763636 0 384s229.236364-512 512-512S1024 101.236364 1024 384zM46.545455 384C46.545455 641.070545 254.929455 849.454545 512 849.454545c257.070545 0 465.454545-208.384 465.454545-465.454545 0-257.070545-208.384-465.454545-465.454545-465.454545C254.929455-81.454545 46.545455 126.929455 46.545455 384z"  horiz-adv-x="1024" />

    
    <glyph glyph-name="qingxie" unicode="&#58949;" d="M367.3088 30.1568l165.12 659.712 161.8432 0-164.5568-659.712L367.3088 30.1568zM460.8 731.1872l268.8 0 0-115.2-268.8 0 0 115.2ZM343.552 145.3568l268.8 0 0-115.2-268.8 0 0 115.2Z"  horiz-adv-x="1024" />

    
    <glyph glyph-name="youduiqi" unicode="&#58950;" d="M461.4144 742.4l0-102.0928L819.2 640.3072 819.2 742.4 461.4144 742.4zM256.3072 436.0704 819.2 436.0704 819.2 538.2144 256.3072 538.2144 256.3072 436.0704zM204.8 25.6l614.4 0 0 102.0928L204.8 127.6928 204.8 25.6zM461.4144 229.888 819.2 229.888l0 102.0928L461.4144 331.9808 461.4144 229.888z"  horiz-adv-x="1024" />

    
    <glyph glyph-name="zuoduiqi" unicode="&#58951;" d="M584.704 742.4 226.8672 742.4l0-102.0928 357.8368 0L584.704 742.4zM789.4528 538.1632 226.6112 538.1632l0-102.144 562.8416 0L789.4528 538.1632zM226.304 127.744l0-102.1952 614.3488 0 0 102.1952L226.304 127.744zM584.704 229.9392l0 102.0928L226.8672 332.032l0-102.0928L584.704 229.9392z"  horiz-adv-x="1024" />

    
    <glyph glyph-name="jiacu" unicode="&#58953;" d="M233.078-37.236l0 793.073 281.659 0c86.333 0 152.917-16.369 199.696-49.167s70.196-78.177 70.196-136.198c0-42.992-14.563-80.74-43.574-113.13s-65.536-54.759-109.575-67.051l0-2.038c55.283-6.815 99.964-27.322 133.926-61.458 34.02-34.137 50.973-76.954 50.973-128.509 0-72.002-25.573-129.325-76.78-171.734-51.205-42.526-121.227-63.789-209.949-63.789l-296.572 0zM402.075 629.891l0-196.083 80.39 0c38.623 0 68.973 9.204 91.168 27.67s33.263 44.215 33.263 77.302c0 60.759-44.389 91.109-133.169 91.109l-71.652 0zM402.075 306.289l0-217.58 100.372 0c42.642 0 76.021 9.903 100.14 29.71 24 19.807 36.06 47.302 36.06 82.43 0 33.438-11.942 59.42-35.826 77.827s-57.846 27.67-101.887 27.67l-98.857 0z"  horiz-adv-x="1024" />

    
    <glyph glyph-name="yonghu" unicode="&#58916;" d="M1021.942 372.859v-254.935h-58.181c-8.884 23.739-19.151 43.545-31.385 59.42-44.637 58.764-121.824 74.493-189.617 88.765-27.088 5.534-52.793 10.923-73.109 18.35-8.738 3.131-14.854 6.262-19.078 8.519 21.408 23.447 39.831 52.138 53.302 84.542 16.894 39.685 25.705 82.866 25.705 124.956 0 64.298-4.078 137.917-33.497 196.972-13.035 25.777-33.714 54.613-66.556 75.366 15.655 56.507 51.483 94.081 127.504 94.081 119.494 0 137.844-96.702 137.844-213.283 0-61.094-27.234-123.717-67.502-159.325-4.005-3.641-6.262-8.811-6.262-14.053-0.146-14.491 0.291-33.497 5.825-40.633 33.788-45.074 125.611-46.458 195.006-68.74M89.147 175.523c43.472 61.968 122.916 77.77 192.894 91.969 27.453 5.389 53.157 10.777 73.619 17.914 8.447 2.986 14.418 5.68 18.569 8.083-21.408 23.447-39.175 51.846-52.939 83.667-16.675 39.468-25.777 81.847-26.361 123.062-0.655 54.541 2.767 96.047 9.83 131.291 10.34 50.682 29.273 89.275 58.036 118.329 9.539 9.903 20.243 18.205 31.603 25.341-16.020 56.798-51.118 94.372-125.611 94.372-123.135 0-140.465-97.794-139.3-215.249 0.655-59.856 27.817-122.188 67.648-157.65 4.078-3.568 6.335-8.811 6.335-14.346 0-14.491-0.946-33.35-6.044-40.050-32.987-45.002-125.538-46.021-195.37-67.574v-256.464h58.327c8.156 22.719 17.84 41.506 28.763 57.308M933.687-78.757c0.582-12.379-9.321-22.719-21.554-22.719h-799.393c-12.379 0-22.137 10.413-21.482 22.719 2.839 48.933 13.18 163.549 50.098 216.341 56.069 79.808 241.172 52.356 293.019 123.717 5.899 7.792 6.845 28.836 6.845 45.074 0 6.116-2.548 11.942-7.063 16.165-44.492 39.759-74.493 109.373-75.148 176.729-1.311 131.801 17.914 241.245 154.519 241.245 132.455 0 152.626-108.281 152.626-239.353 0-68.594-30.146-138.645-74.638-178.622-4.297-3.932-7.063-9.977-7.136-15.655-0.364-16.165 0.655-37.647 6.262-45.657 52.501-71.361 232.070-45.803 291.563-123.717 38.812-51.628 48.861-167.263 51.483-216.269z"  horiz-adv-x="1024" />

    
    <glyph glyph-name="huaban" unicode="&#58966;" d="M780.7975 409.994923c134.273775 0 243.152509 108.678774 243.152509 242.952548C1023.95001 787.221246 915.271236 896 780.997461 896c-134.273775 0-242.952548-108.978715-242.952548-243.25249l0-217.557508L538.044913 409.994923l25.195079 0L780.7975 409.994923zM780.897481 844.710018c105.979301 0 191.862527-85.883226 191.862527-191.862527 0-105.979301-85.983206-191.862527-191.962507-191.862527L589.034954 460.984964 589.034954 652.74751C589.034954 758.726811 674.91818 844.710018 780.897481 844.710018zM243.102519 895.90002C108.828744 895.90002 0.04999 787.221246 0.04999 652.947471c0-134.273775 108.978715-242.952548 243.25249-242.952548l217.557508 0L486.055067 409.994923l0 25.195079L486.055067 652.74751C486.055067 787.021285 377.376294 895.90002 243.102519 895.90002zM435.065026 460.984964 243.30248 460.984964c-105.979301 0-191.962507 85.883226-191.962507 191.862527 0 105.979301 85.883226 191.862527 191.862527 191.862527 105.979301 0 191.862527-85.983206 191.862527-191.962507L435.065026 460.984964zM780.7975 358.005077 563.239992 358.005077 538.044913 358.005077l0-25.195079 0-217.557508c0-134.273775 108.678774-243.152509 242.952548-243.152509 37.692638 0 74.08553 8.598321 107.279047 24.895138 12.69752 6.29877 17.796524 21.595782 11.597735 34.293302-6.29877 12.69752-21.595782 17.896505-34.293302 11.597735-26.094903-12.897481-54.789299-19.696153-84.68346-19.696153-105.979301 0-191.862527 85.983206-191.862527 191.962507L589.034954 307.015036l191.762546 0c105.979301 0 191.962507-85.883226 191.962507-191.862527 0-18.696348-2.699473-36.892794-7.798477-54.389377-3.999219-13.597344 3.699277-27.794571 17.296622-31.79379 13.597344-3.999219 27.794571 3.799258 31.79379 17.296622 6.598711 22.195665 9.898067 45.191174 9.898067 68.786565C1023.95001 249.326303 915.071275 358.005077 780.7975 358.005077zM243.30248 358.005077C109.028705 358.005077 0.149971 249.326303 0.149971 115.052529c0-134.273775 108.678774-243.052529 242.952548-243.052529 134.273775 0 242.952548 108.978715 242.952548 243.25249L486.055067 332.809998 486.055067 358.005077l-25.195079 0L243.30248 358.005077zM243.2025-76.710018c-105.979301 0-191.862527 85.883226-191.862527 191.862527 0 105.979301 85.983206 191.862527 191.962507 191.862527L435.065026 307.015036l0-191.762546C435.065026 9.273189 349.1818-76.710018 243.2025-76.710018z"  horiz-adv-x="1024" />

    
    <glyph glyph-name="fenxiang" unicode="&#58922;" d="M279.035134 290.85253c0 0 194.483436 175.35682 379.060245 123.650181l0-137.13838 244.432035 251.774257L657.908114 711.231833l0-142.336776C657.908114 568.895057 342.057493 596.599026 279.035134 290.85253zM682.779571 130.379699 194.411805 130.379699 194.411805 521.493467l126.062114 0c59.273988 61.623499 134.128837 72.815399 134.128837 72.815399l-333.131193 0.021489 0-537.562189 634.07736 0L755.548922 296.257633l-72.76935-72.672136L682.779571 130.379699z"  horiz-adv-x="1024" />

    
    <glyph glyph-name="jiantouarrow122" unicode="&#58941;" d="M511.9701 896C229.299696 896 0.0299 666.730203 0.0299 384.059799c0-282.790002 229.269797-512.059799 511.940201-512.059799 282.790002 0 512 229.269797 512 512.059799C1023.910301 666.730203 794.760103 896 511.9701 896zM511.9701-29.989255c-228.671806 0-414.049054 185.25765-414.049054 414.049054 0 228.671806 185.377248 414.168652 414.049054 414.168652 228.731605 0 414.108853-185.496847 414.108853-414.168652C926.019154 155.268395 740.701705-29.989255 511.9701-29.989255zM828.486802 418.025695 560.706377 685.865919C541.929456 704.583041 526.740481 698.244335 526.740481 671.753329l0-123.006774c0-26.371409-21.707078-48.018687-48.078486-48.018687L229.538893 500.727867c-26.431208 0-48.198085-21.467881-48.198085-48.138285L181.340808 315.350619c0-26.371409 21.647279-48.138285 48.198085-48.138285l249.123102 0c26.311609 0 48.078486-21.58748 48.078486-48.018687l0-123.006774c0-26.371409 15.248774-32.710114 33.906097-14.112591l267.840224 267.840224C847.203924 368.751226 847.203924 399.368372 828.486802 418.025695z"  horiz-adv-x="1024" />

    
    <glyph glyph-name="xiayiye-copy" unicode="&#58957;" d="M259.171 425.845l-33.588-33.588 503.814-503.814 67.175 67.175-436.638 436.639 436.638 436.638-67.175 67.177z"  horiz-adv-x="1024" />

    
    <glyph glyph-name="in" unicode="&#59073;" d="M946.2784 896C966.656 896 984.6784 889.0368 1000.448 875.2128 1016.1152 861.2864 1024 844.1856 1024 823.808l0-876.9536c0-20.3776-7.8848-37.4784-23.552-51.3024C984.6784-118.272 966.656-125.2352 946.2784-125.2352L74.9568-125.2352c-20.3776 0-37.888 6.9632-52.736 20.7872C7.3728-90.5216 0-73.5232 0-53.0432L0 823.808c0 20.3776 7.3728 37.4784 22.2208 51.3024S54.5792 896 74.9568 896L946.2784 896zM227.5328 579.6864c24.064 0 44.8512 8.704 62.464 26.4192 17.6128 17.6128 26.4192 38.4 26.4192 62.464 0 23.9616-8.8064 44.8512-26.4192 62.464C272.384 748.4416 251.5968 757.248 227.5328 757.248c-24.064 0-44.8512-8.8064-62.464-26.3168-17.6128-17.6128-26.4192-38.4-26.4192-62.464 0-25.9072 8.2944-47.2064 24.9856-63.7952C180.4288 587.9808 201.6256 579.6864 227.5328 579.6864zM302.4896 24.6784 302.4896 513.024 152.6784 513.024l0-488.448L302.4896 24.576zM871.3216 24.6784 871.3216 293.7856c0 73.9328-12.4928 130.8672-37.4784 170.7008C808.96 504.2176 761.2416 524.1856 690.9952 524.1856c-70.3488 0-118.3744-25.9072-144.2816-77.7216L543.9488 446.464 543.9488 513.024 399.5648 513.024l0-488.448 149.8112 0L549.376 266.0352c0 83.2512 30.5152 124.928 91.5456 124.928 24.064 0 42.0864-7.8848 54.0672-23.552 11.9808-15.7696 18.944-30.5152 20.7872-44.4416s2.7648-33.792 2.7648-59.6992l0-238.6944L871.3216 24.576z"  horiz-adv-x="1024" />

    
    <glyph glyph-name="diannaoban" unicode="&#58960;" d="M815.666626 727.4277 209.015919 727.4277c-44.669362 0-80.886215-36.20662-80.886215-80.886215l0-424.653653c0-44.667316 36.217876-80.887238 80.886215-80.887238l606.650707 0c44.667316 0 80.885192 36.219923 80.885192 80.887238L896.551818 646.540462C896.551818 691.22108 860.333942 727.4277 815.666626 727.4277zM512.359692 161.222147c-22.343891 0-40.453341 18.10945-40.453341 40.442084 0 22.334681 18.10945 40.442084 40.453341 40.442084 22.333658 0 40.443108-18.107403 40.443108-40.442084C552.803823 179.331597 534.694373 161.222147 512.359692 161.222147zM835.88818 262.328893 188.802552 262.328893 188.802552 666.763039l647.084605 0L835.887157 262.328893zM653.912615 100.557486 370.808816 100.557486c-16.755616 0-30.332842-13.58439-30.332842-30.333866 0-16.744359 13.577227-30.331819 30.332842-30.331819l283.102776 0c16.746406 0 30.3134 13.586436 30.3134 30.331819C684.226015 86.972073 670.659021 100.557486 653.912615 100.557486z"  horiz-adv-x="1024" />

    
    <glyph glyph-name="jiantou-copy2" unicode="&#58983;" d="M671.807-31.804l-415.632 415.804 415.632 415.803 63.445-63.616-352.017-352.209 352.017-352.102z"  horiz-adv-x="1024" />

    
    <glyph glyph-name="anzhuo3" unicode="&#59137;" d="M632.198 742.019c-21.304 0-38.635-17.112-38.635-38.145 0-21.032 17.331-38.144 38.635-38.144s38.635 17.112 38.635 38.144C670.833 724.907 653.502 742.019 632.198 742.019zM390.821 742.019c-21.303 0-38.635-17.112-38.635-38.145 0-21.032 17.332-38.144 38.635-38.144s38.635 17.112 38.635 38.144C429.456 724.907 412.124 742.019 390.821 742.019zM791.753 580.4c-1.479 20.163-6.876 60.24-26.413 102.106-23.703 50.793-60.379 88.255-109.071 111.444L697.1 842.948c3.03 3.79 1.346 9.718-4.006 14.097l-0.286 0.219c-2.62 1.873-5.654 2.991-8.114 2.991-2.171 0-4.063-0.792-5.623-2.354l-44.864-53.014c-35.864 13.628-77.037 20.536-122.451 20.536l-2.454 0c-44.536 0-85.042-6.667-120.465-19.823L345.295 857.16c-0.268 0.479-0.605 0.925-1.005 1.326-1.334 1.336-3.176 2.014-5.474 2.014-2.868 0-5.754-1.183-7.987-3.26-5.053-3.831-6.785-8.937-4.409-13.094l0.237-0.414 40.582-49.008c-48.502-22.828-85.062-60.306-108.74-111.5-20.455-44.223-25.175-86.667-26.254-102.861l-0.392-5.887 560.334 0L791.753 580.4zM290.455 625.01c11.642 43.76 39.042 98.83 103.312 126.792l24.962 10.905c27.533 8.247 58.085 12.428 90.819 12.428l2.208 0c34.14 0 65.5-4.503 93.219-13.385l24.271-10.68c64.287-28.224 92.038-82.775 103.988-126.06L290.455 625.01zM884.86 585.761c-35.506 0-64.393-28.886-64.393-64.392l0-235.49c0-35.505 28.887-64.392 64.393-64.392 35.505 0 64.392 28.887 64.392 64.392l0 235.49C949.252 556.875 920.365 585.761 884.86 585.761zM870.755 521.369c0 7.778 6.327 14.105 14.105 14.105 7.776 0 14.104-6.327 14.104-14.105l0-235.49c0-7.776-6.328-14.104-14.104-14.104-7.778 0-14.105 6.328-14.105 14.104L870.755 521.369zM139.141 585.761c-35.506 0-64.392-28.886-64.392-64.392l0-235.49c0-35.505 28.886-64.392 64.392-64.392 35.505 0 64.392 28.887 64.392 64.392l0 235.49C203.532 556.875 174.646 585.761 139.141 585.761zM125.036 521.369c0 7.778 6.327 14.105 14.105 14.105 7.777 0 14.104-6.327 14.104-14.105l0-235.49c0-7.776-6.327-14.104-14.104-14.104-7.778 0-14.105 6.328-14.105 14.104L125.036 521.369zM231.742 133.792c0-19.569 15.697-42.315 35.936-42.315l62.185 0 0-119.585c0-35.506 28.886-64.392 64.392-64.392s64.392 28.886 64.392 64.392L458.647 91.477l109.16 0 0-119.585c0-18.821 9.028-36.984 24.774-49.847 10.642-9.245 25.344-14.545 40.353-14.545l1.021 0 0 0.002c35.303 0.282 62.88 28.463 62.88 64.39L696.835 91.477l64.639 0c20.154 0 31.03 21.676 31.03 42.069L792.504 546.513 231.742 546.513 231.742 133.792zM646.304 141.765l0-169.873c0-7.983-5.236-13.905-12.459-14.104l-0.911 0c-2.439 0-4.8 0.864-6.838 2.501l-1.135 1.137-1.217 0.302c-3.267 2.951-5.405 6.923-5.405 10.165L618.339 141.765 408.359 141.765l0-169.873c0-7.776-6.327-14.104-14.104-14.104-7.778 0-14.105 6.328-14.105 14.104L380.15 141.765l-98.121 0L282.029 496.226l459.941 0 0-354.461L646.304 141.765z"  horiz-adv-x="1024" />

    
    <glyph glyph-name="shouzhi1" unicode="&#59035;" d="M398.647-58.199 179.278 215.814c0 0-11.085 102.239 87.737 59.17 57.017-25.586 77.367-79.298 77.367-79.298l2.043 417.39c0 0 58.947 87.901 110.234 0l0.934-264.254c0 0 63.75 86.742 138.747-6.064 0 0 56.248 94.518 135.27-4.577 0 0 56.03 109.298 112.278-9.485l0-331.75c0 0-3.256-25.862-48.862-55.145L398.647-58.199 398.647-58.199zM398.647-58.199M400.576 825C278.208 825 178.95 725.741 178.95 603.374c0-82.111 45.164-152.972 111.502-191.245l0 68.489c-34.299 30.386-56.357 74.228-56.357 123.636 0 91.43 74.166 165.602 165.597 165.602 91.433 0 165.602-74.171 165.602-165.602 0-48.415-21.175-91.595-54.265-121.871l0-70.086c66.121 38.379 111.174 109.13 111.174 191.077C622.203 725.741 522.944 825 400.576 825L400.576 825zM400.576 825"  horiz-adv-x="1024" />

    
    <glyph glyph-name="zhengque1" unicode="&#58901;" d="M89.431128 50.891481c0.030232 0.689292 0.070542 1.375561 0.104805 2.063846C89.466399 52.27712 89.431128 51.587828 89.431128 50.891481zM846.145984 490.587349c-8.172748 11.580915-24.183676 14.343123-35.764591 6.171382L378.612385 192.087547 232.874448 399.385123c-8.172748 11.579907-24.184684 14.343123-35.764591 6.171382-11.580915-8.172748-14.342115-24.184684-6.171382-35.764591l160.496248-228.292771c0.254957-0.361778 0.518985-0.714486 0.789058-1.060139 8.380342-10.679998 23.757403-13.027018 34.975533-5.109227l452.776296 319.49399C851.555517 462.995507 854.317725 479.007442 846.145984 490.587349zM504.787121 879.540629c-277.981266 0-503.330437-225.348163-503.330437-503.32943 0-277.983282 225.349171-503.330437 503.330437-503.330437 277.982274 0 503.330437 225.347156 503.330437 503.330437C1008.117559 654.192466 782.769395 879.540629 504.787121 879.540629zM504.787121-74.571792c-248.960452 0-450.781984 201.820524-450.781984 450.782992 0 248.959444 201.821532 450.781984 450.781984 450.781984 248.96146 0 450.780977-201.82254 450.780977-450.781984C955.568098 127.248732 753.748581-74.571792 504.787121-74.571792z"  horiz-adv-x="1024" />

    
    <glyph glyph-name="tongzhi" unicode="&#58925;" d="M856.798419 102.887554l-73.742515 129.741923L783.055904 494.156866c0 100.20112-75.31636 208.644971-185.111998 248.378927-5.348821 53.104475-40.835034 91.831498-87.334068 91.831498-46.434565 0-82.048691-38.728046-87.332021-91.831498-109.73424-39.733956-185.049576-148.176784-185.049576-248.378927l0-261.527388-77.329203-136.096654c-5.158487-8.997931-5.03262-20.008706 0.125867-28.944216 5.15951-8.933463 14.724353-14.346753 25.042349-14.346753l184.04162 0c13.528108-65.310472 71.353095-114.51308 140.501988-114.51308 69.213361 0 127.036301 49.202609 140.500964 114.51308l184.04162 0c0.505513 0 0.881067 0 1.322112 0 16.045441 0 29.007661 12.898775 29.007661 28.944216C865.482195 90.302935 862.209662 97.664599 856.798419 102.887554M510.609839 776.291594c10.444886 0 18.875906-7.927553 24.287149-19.756973-8.05342 0.818645-15.85613 2.705622-24.287149 2.705622s-16.232706-1.886977-24.287149-2.705622C491.734956 768.365064 500.165975 776.291594 510.609839 776.291594M510.609839-3.258974c-36.808324 0-67.576071 23.657816-79.532381 56.500828l159.062715 0C578.186933 20.399865 547.482631-3.258974 510.609839-3.258974M235.90022 111.192707l56.502875 99.476619c2.515287 4.28049 3.89982 9.314133 3.89982 14.34573L296.302915 494.156866c0 97.747231 91.611487 207.070102 214.306924 207.070102 122.694413 0 214.431767-109.322871 214.431767-207.070102L725.041606 225.015056c0-5.031597 1.322112-10.06524 3.774977-14.34573l56.565297-99.476619L235.90022 111.192707z"  horiz-adv-x="1024" />

    
    <glyph glyph-name="bianji2" unicode="&#58963;" d="M323.608576 237.274112 366.068736 194.696192 468.333568 231.995392 360.828928 339.380224ZM513.3056 832.68096c-248.041472 0-449.069056-201.05216-449.069056-449.072128 0-247.994368 201.028608-449.069056 449.069056-449.069056 247.994368 0 449.07008 201.074688 449.07008 449.069056C962.37568 631.6288 761.299968 832.68096 513.3056 832.68096zM490.842112 209.488896l-0.239616 0.279552c-1.241088-1.040384-2.60096-1.999872-4.200448-2.56l-206.849024-75.480064c-5.398528-1.918976-11.474944-0.638976-15.471616 3.519488-4.07552 3.997696-5.397504 10.075136-3.398656 15.429632l75.399168 206.773248c0.562176 1.557504 1.440768 2.878464 2.51904 4.158464l-0.161792 0.198656L524.184576 547.509248c20.150272-20.108288 36.739072-36.658176 36.739072-36.658176l-145.522688-145.28512c-2.358272-2.279424-3.398656-5.276672-3.398656-8.31488 0-2.998272 1.040384-5.998592 3.398656-8.316928 2.280448-2.23744 5.27872-3.477504 8.395776-3.477504 3.117056 0 6.07744 1.240064 8.353792 3.477504L577.596416 494.138368l45.693952-45.617152L478.487552 303.87712c-4.557824-4.595712-4.557824-12.071936 0-16.668672 2.238464-2.200576 5.27872-3.438592 8.3968-3.438592 3.15904 0 6.115328 1.238016 8.354816 3.398656 0 0.039936 144.763904 144.643072 144.763904 144.643072s21.269504-21.269504 36.54144-36.620288L490.842112 209.488896zM751.264768 469.79072l-57.969664-57.929728c-29.78304 29.744128-98.985984 98.99008-152.357888 152.260608l58.047488 58.008576c20.789248 20.769792 54.771712 20.809728 75.522048 0l76.75904-76.8C772.054016 524.561408 772.015104 490.65984 751.264768 469.79072z"  horiz-adv-x="1024" />

    
    <glyph glyph-name="arrow-left-copy" unicode="&#58900;" d="M324.613 747.591c0 0 413.412-317.444 413.412-317.444 28.734-22.060 28.734-69.89 0-91.951 0 0-413.412-317.444-413.412-317.444-26.633-20.453-59.941 5.128-59.942 46.038 0 0 0 634.826 0 634.826 0 40.847 33.308 66.43 59.941 45.976 0 0 0 0 0 0z"  horiz-adv-x="1024" />

    
    <glyph glyph-name="wenjian" unicode="&#58915;" d="M186.181818 58.181818l325.818182 0 0-46.545455-325.818182 0 0 46.545455ZM837.818182 58.181818 837.818182 11.636364 930.909091 11.636364 930.909091 896 232.727273 896 232.727273 802.909091 279.272727 802.909091 279.272727 849.454545 884.363636 849.454545 884.363636 58.181818ZM186.181818 197.818182l512 0 0-46.545455-512 0 0 46.545455ZM93.090909 746.589091l0-864.814545C93.090909-123.624727 97.373091-128 102.679273-128l678.958545 0C786.990545-128 791.272727-123.671273 791.272727-118.225455L791.272727 746.589091C791.272727 751.988364 786.990545 756.363636 781.684364 756.363636L102.679273 756.363636C97.373091 756.363636 93.090909 752.034909 93.090909 746.589091zM139.636364 709.818182l605.090909 0 0-791.272727L139.636364-81.454545 139.636364 709.818182zM186.181818 616.727273l512 0 0-46.545455-512 0 0 46.545455ZM186.181818 477.090909l512 0 0-46.545455-512 0 0 46.545455ZM186.181818 337.454545l512 0 0-46.545455-512 0 0 46.545455Z"  horiz-adv-x="1024" />

    
    <glyph glyph-name="liebiao" unicode="&#58954;" d="M187.392 825.344q28.672 0 48.64-19.456t19.968-48.128l0-52.224q0-28.672-19.968-48.64t-48.64-19.968l-54.272 0q-27.648 0-47.616 19.968t-19.968 48.64l0 52.224q0 28.672 19.968 48.128t47.616 19.456l54.272 0zM889.856 825.344q27.648 0 47.616-19.456t19.968-48.128l0-52.224q0-28.672-19.968-48.64t-47.616-19.968l-437.248 0q-28.672 0-48.64 19.968t-19.968 48.64l0 52.224q0 28.672 19.968 48.128t48.64 19.456l437.248 0zM187.392 506.88q28.672 0 48.64-19.968t19.968-48.64l0-52.224q0-27.648-19.968-47.616t-48.64-19.968l-54.272 0q-27.648 0-47.616 19.968t-19.968 47.616l0 52.224q0 28.672 19.968 48.64t47.616 19.968l54.272 0zM889.856 506.88q27.648 0 47.616-19.968t19.968-48.64l0-52.224q0-27.648-19.968-47.616t-47.616-19.968l-437.248 0q-28.672 0-48.64 19.968t-19.968 47.616l0 52.224q0 28.672 19.968 48.64t48.64 19.968l437.248 0zM187.392 187.392q28.672 0 48.64-19.968t19.968-47.616l0-52.224q0-28.672-19.968-48.64t-48.64-19.968l-54.272 0q-27.648 0-47.616 19.968t-19.968 48.64l0 52.224q0 27.648 19.968 47.616t47.616 19.968l54.272 0zM889.856 187.392q27.648 0 47.616-19.968t19.968-47.616l0-52.224q0-28.672-19.968-48.64t-47.616-19.968l-437.248 0q-28.672 0-48.64 19.968t-19.968 48.64l0 52.224q0 27.648 19.968 47.616t48.64 19.968l437.248 0z"  horiz-adv-x="1024" />

    
    <glyph glyph-name="facebook" unicode="&#59109;" d="M767.428571 889.142857l0-150.857143-89.714286 0q-49.142857 0-66.285714-20.571429t-17.142857-61.714286l0-108 167.428571 0-22.285714-169.142857-145.142857 0 0-433.714286-174.857143 0 0 433.714286-145.714286 0 0 169.142857 145.714286 0 0 124.571429q0 106.285714 59.428571 164.857143t158.285714 58.571429q84 0 130.285714-6.857143z"  horiz-adv-x="1024" />

    
    <glyph glyph-name="tianjia" unicode="&#59023;" d="M512-128c-282.787759 0-512 229.248343-512 512C0 666.787759 229.212241 896 512 896 794.751657 896 1024.036102 666.787759 1024.036102 384 1024.036102 101.212241 794.751657-128 512-128zM768.036102 435.19278l-204.80722 0L563.228882 640 460.843323 640l0-204.80722L256 435.19278l0-102.385559 204.80722 0 0-204.80722 102.385559 0 0 204.80722 204.80722 0L768 435.19278z"  horiz-adv-x="1025" />

    
    <glyph glyph-name="theme" unicode="&#58914;" d="M788 736.169c-32 31.831-42 31.831-63.62 31.831h-82.38c0 0-66-60.923-130-60.923s-128 60.923-128 60.923h-84.795c-22.575 0-33.205-12.923-53.358-31.831l-164.264-164.040c-11.339-11.324-29.583-47.821 0-84.783 0 0 142.441-131.643 156.417-132.883v-293.538c0-33.375 48.579-60.923 82-60.923h386c33.42 0 82 27.548 82 60.923v293.538c14.145 1.153 154.449 132.883 154.449 132.883 31.551 36.655 23.403 73.771 0 97.142l-154.449 151.682z"  horiz-adv-x="1024" />

    
    <glyph glyph-name="sousuo1" unicode="&#58945;" d="M441.192 714.169c132.48 13.704 255.824-68.524 292.371-191.868 4.568-18.274-4.568-27.41-13.704-31.978-9.137 0-22.841 4.568-27.41 18.274-31.978 109.639-137.049 178.163-251.256 159.89-22.841-4.567-27.41 41.114 0 45.683zM765.539 202.521c-4.568 4.567 0 18.274 4.567 22.841 50.251 63.955 77.661 141.617 77.661 228.413 0 201.004-164.459 365.463-365.463 365.463-201.004 0-365.463-164.459-365.463-365.463 0-201.004 164.459-365.463 365.463-365.463 86.797 0 164.459 27.41 223.846 73.092 9.137 9.137 18.274 13.704 27.41 4.567l127.913-132.48c9.137-9.137 27.41-4.567 36.547 4.567v0c9.137 9.137 9.137 22.841 0 31.978l-132.48 132.48zM482.307 129.429c-178.163 0-319.779 146.185-319.779 324.348s141.617 319.779 319.779 319.779c178.163 0 324.348-141.616 324.348-319.779 0-178.163-146.185-324.348-324.348-324.348z"  horiz-adv-x="1024" />

    
    <glyph glyph-name="jiudian" unicode="&#58958;" d="M224.4608 574.8736 160.5632 574.8736 160.5632 510.976l63.8976 0L224.4608 574.8736zM480.0512 638.7712 416.1536 638.7712l0-63.8976 63.8976 0L480.0512 638.7712zM607.8464 638.7712l-63.8976 0 0-63.8976 63.8976 0L607.8464 638.7712zM735.6416 638.7712 671.744 638.7712l0-63.8976 63.8976 0L735.6416 638.7712zM480.0512 766.5664 416.1536 766.5664l0-63.8976 63.8976 0L480.0512 766.5664zM607.8464 766.5664l-63.8976 0 0-63.8976 63.8976 0L607.8464 766.5664zM735.6416 766.5664 671.744 766.5664l0-63.8976 63.8976 0L735.6416 766.5664zM480.0512 383.1808 416.1536 383.1808l0-63.8976 63.8976 0L480.0512 383.1808zM607.8464 383.1808l-63.8976 0 0-63.8976 63.8976 0L607.8464 383.1808zM735.6416 383.1808 671.744 383.1808l0-63.8976 63.8976 0L735.6416 383.1808zM480.0512 255.3856 416.1536 255.3856l0-63.8976 63.8976 0L480.0512 255.3856zM735.6416 255.3856 671.744 255.3856l0-63.8976 63.8976 0L735.6416 255.3856zM480.0512 127.5904 416.1536 127.5904l0-63.8976 63.8976 0L480.0512 127.5904zM735.6416 127.5904 671.744 127.5904l0-63.8976 63.8976 0L735.6416 127.5904zM480.0512 510.976 416.1536 510.976l0-63.8976 63.8976 0L480.0512 510.976zM607.8464 510.976l-63.8976 0 0-63.8976 63.8976 0L607.8464 510.976zM735.6416 510.976 671.744 510.976l0-63.8976 63.8976 0L735.6416 510.976zM224.4608 447.0784 160.5632 447.0784l0-63.8976 63.8976 0L224.4608 447.0784zM224.4608 319.2832 160.5632 319.2832l0-63.8976 63.8976 0L224.4608 319.2832zM224.4608 191.488 160.5632 191.488l0-63.8976 63.8976 0L224.4608 191.488zM224.4608 63.6928 160.5632 63.6928l0-63.8976 63.8976 0L224.4608 63.6928zM607.8464 255.3856l-63.8976 0 0-63.8976 63.8976 0L607.8464 255.3856zM927.3344 447.0784l-63.8976 0L863.4368 830.464c0 35.328-28.5696 63.8976-63.8976 63.8976L352.256 894.3616c-35.328 0-63.8976-28.5696-63.8976-63.8976l0-127.7952L96.6656 702.6688c-35.328 0-63.8976-28.5696-63.8976-63.8976l0-702.8736C32.768-99.4304 61.3376-128 96.6656-128l830.6688 0c35.328 0 63.8976 28.5696 63.8976 63.8976l0 447.2832C991.232 418.5088 962.6624 447.0784 927.3344 447.0784zM288.3584-64.1024 96.6656-64.1024 96.6656 638.7712l191.6928 0L288.3584-64.1024zM799.5392-64.1024l-191.6928 0 0 191.6928-63.8976 0 0-191.6928L352.256-64.1024 352.256 830.464l447.2832 0L799.5392-64.1024zM927.3344-64.1024l-63.8976 0 0 63.8976 63.8976 0L927.3344-64.1024zM927.3344 63.6928l-63.8976 0 0 63.8976 63.8976 0L927.3344 63.6928zM927.3344 191.488l-63.8976 0 0 63.8976 63.8976 0L927.3344 191.488zM927.3344 319.2832l-63.8976 0 0 63.8976 63.8976 0L927.3344 319.2832z"  horiz-adv-x="1024" />

    
    <glyph glyph-name="gouwuche1" unicode="&#58940;" d="M331.358827 87.489866c-23.728424 0-42.966581-19.23918-42.966581-42.970674 0-23.706935 19.238157-42.989093 42.966581-42.989093 23.731494 0 42.968627 19.282159 42.968627 42.989093C374.327454 68.250686 355.090321 87.489866 331.358827 87.489866L331.358827 87.489866zM761.048169 87.489866c-23.728424 0-42.966581-19.23918-42.966581-42.970674 0-23.706935 19.238157-42.989093 42.966581-42.989093 23.731494 0 42.968627 19.282159 42.968627 42.989093C804.016797 68.250686 784.77864 87.489866 761.048169 87.489866L761.048169 87.489866zM808.716842 173.428144c-27.590382 0-494.14126 0-494.14126 0s-92.148723 292.031123-150.391219 494.140237c-7.364735 25.575492-22.38687 21.485337-42.969651 21.485337-17.918092 0-21.485337 0-21.485337 0-23.87578 0-36.827767-0.082888-36.827767-21.485337 0-19.321044 14.589276-21.484314 36.827767-21.484314 0 0 11.624758 0 21.485337 0 20.72809 0 171.875532-515.625574 171.875532-515.625574s486.065328 0 515.625574 0C838.279135 130.458493 836.3062 173.428144 808.716842 173.428144L808.716842 173.428144zM804.016797 216.395748l90.638323 322.267774L250.121618 538.663522l107.421568-322.267774L804.016797 216.395748 804.016797 216.395748z"  horiz-adv-x="1024" />

    
    <glyph glyph-name="jiantou-copy-copy" unicode="&#58998;" d="M767.707 376.549l-459.642 447.973-52.012-50.732 407.574-397.211-407.542-397.21 51.975-50.733z"  horiz-adv-x="1024" />

    
    <glyph glyph-name="mima" unicode="&#59078;" d="M319.45 28.8c89.6-89.6 233.6-89.6 316.8 0l12.8 12.8L332.25 358.4l-12.8-12.8C233.05 262.4 233.05 118.4 319.45 28.8L319.45 28.8 319.45 28.8zM335.45 307.2l262.4-262.4c-73.6-60.8-179.2-57.6-252.8 12.8C281.05 124.8 274.65 233.6 335.45 307.2L335.45 307.2 335.45 307.2zM485.85-128c179.2 0 329.6 147.2 329.6 329.6 0 44.8-16 99.2-32 137.6l336 361.6 3.2 99.2L1103.45 896 956.25 896l-80-83.2 9.6-41.6L844.25 771.2l-60.8-60.8 3.2-32-32 0L591.45 508.8c-32 12.8-67.2 16-105.6 16C306.65 524.8 156.25 377.6 156.25 195.2S303.45-128 485.85-128L485.85-128 485.85-128zM764.25 643.2l51.2 3.2 0 54.4 38.4 41.6 64 0-6.4 64 60.8 64 105.6 0 12.8-57.6c-112-115.2-204.8-214.4-320-329.6-16-16-3.2-44.8 12.8-25.6 105.6 105.6 217.6 220.8 310.4 313.6l-6.4-57.6L761.05 368c-32 60.8-83.2 99.2-144 131.2L764.25 643.2 764.25 643.2 764.25 643.2zM485.85 489.6c160 0 288-128 288-288s-128-288-288-288-288 128-288 284.8S322.65 489.6 485.85 489.6L485.85 489.6 485.85 489.6z"  horiz-adv-x="1280" />

    
    <glyph glyph-name="jiaoben" unicode="&#59009;" d="M355.400383 391.302313c-3.620457 8.68787-13.598716 12.794397-22.286586 9.17394L121.278157 312.183348c-13.857613-5.77554-14.017248-25.350364-0.255827-31.351032l211.390501-92.178399c8.627495-3.761674 18.671245 0.182149 22.432918 8.809643 3.761674 8.627495-0.182149 18.671245-8.809643 22.432918L171.282015 296.100044l174.944428 72.916706C354.914312 372.637208 359.02084 382.615467 355.400383 391.302313zM921.386948 312.183348 709.551308 400.476253c-8.68787 3.620457-18.665105-0.48607-22.286586-9.17394-3.620457-8.68787 0.48607-18.665105 9.17394-22.286586l174.944428-72.916706-174.755116-76.202543c-8.627495-3.761674-12.571317-13.805424-8.809643-22.432918 3.761674-8.627495 13.805424-12.571317 22.432918-8.809643l211.390501 92.178399C935.403173 286.832983 935.24456 306.407808 921.386948 312.183348zM571.71401 528.949276c-9.051143 2.579755-18.479887-2.666736-21.059642-11.718903l-119.67566-419.944398c-2.579755-9.051143 2.666736-18.48091 11.718903-21.059642s18.479887 2.666736 21.059642 11.718903l119.67566 419.944398C586.012667 516.940778 580.766177 526.369521 571.71401 528.949276zM0.021489 896l0-1022.506996 1022.506996 0L1022.528486 691.498396l0 34.08326L1022.528486 896 0.021489 896zM34.104749-92.423737 34.104749 691.498396l17.042141 0 937.298336 0 0-783.922133L34.104749-92.423737zM988.445226 725.582679 51.14689 725.582679 34.104749 725.582679 34.104749 861.91674l954.339454 0L988.444203 725.582679z"  horiz-adv-x="1024" />

    
    <glyph glyph-name="shuaxin" unicode="&#59228;" d="M946.179275 217.358249l-193.707605-34.996303c-27.01469-4.911762-38.680124-37.247527-20.874988-58.224843l36.735885-43.387229c-167.409214-141.417808-417.704407-120.54282-559.224543 46.661737-57.406216 67.843709-87.797742 149.194764-92.811832 231.466773l-0.511642 0c0 2.148896 0 4.40012-0.306985 6.549016-3.581493 24.149495-26.093734 40.624363-50.24323 36.940542-24.047167-3.683821-40.624363-26.093734-37.04287-50.24323 0.102328-0.511642 0.306985-0.920955 0.306985-1.330269 6.651344-99.667833 43.694214-198.210053 113.175177-280.379734 173.139602-204.452084 479.101429-229.931848 683.655841-56.996902l33.461377-39.498751c17.805136-20.977316 51.573499-14.837614 60.88538 11.051464l66.513441 185.21435C995.501549 196.073948 973.296293 222.270011 946.179275 217.358249zM76.081143 552.483661l193.707605 34.996303c27.01469 4.911762 38.680124 37.247527 20.874988 58.224843l-54.438693 64.364545 19.44239-23.023883C422.974318 828.667932 673.474168 807.895273 815.096632 640.588388c58.224843-68.764665 88.616369-151.650645 92.91416-235.150595l0.511642 0c0.102328-1.330269 0-2.762866 0.204657-4.093135 3.683821-24.047167 26.196063-40.624363 50.24323-36.940542 21.898271 3.274508 37.349855 22.307585 37.247527 43.796542l0 0c0 0.409313-0.102328 0.920955-0.102328 1.330269-0.102328 1.739582 0 3.376836-0.306985 5.116419-0.102328 0.409313-0.204657 0.716299-0.306985 1.125612-6.446687 100.179474-43.284901 199.335665-113.175177 281.812331C709.289098 902.139702 403.122614 927.517138 198.670531 754.479864L163.469571 795.922854c-17.805136 20.977316-51.573499 14.837614-60.88538-11.051464l-66.513441-185.21435C26.758869 573.870291 48.964125 547.5719 76.081143 552.483661z"  horiz-adv-x="1024" />

    
    <glyph glyph-name="ins" unicode="&#58947;" d="M62.947657 832.595948 62.947657 832.595948 62.947657 832.595948 62.947657 832.595948zM793.183054 352.178247c0-137.970328-111.877043-249.816672-249.816672-249.816672-137.970328 0-249.817696 111.846344-249.817696 249.816672 0 16.425088 1.62194 32.487925 4.714372 48.042179L130.206504 400.220427l0-332.058768c0-71.281463 57.740052-129.142266 129.142266-129.142266l568.034201 0c71.281463 0 129.142266 57.800427 129.142266 129.142266L956.525236 400.219403l-167.996179 0C791.562137 384.666172 793.183054 368.602312 793.183054 352.178247L793.183054 352.178247 793.183054 352.178247zM827.38297 765.338125 259.34877 765.338125c-71.342862 0-129.142266-57.830103-129.142266-129.143289L130.206504 496.303762l209.16174 0c45.218878 63.895239 119.713522 105.692181 203.998137 105.692181 84.282568 0 158.778236-41.796942 203.997114-105.692181l209.162764 0L956.526259 636.194836C956.525236 707.477322 898.694109 765.338125 827.38297 765.338125L827.38297 765.338125zM890.556779 605.838458c0-12.730952-10.387581-23.060205-23.059182-23.060205L798.377356 582.778252c-12.671601 0-23.060205 10.389628-23.060205 23.060205l0 69.180616c0 12.730952 10.419304 23.060205 23.060205 23.060205l69.12024 0c12.730952 0 23.059182-10.389628 23.059182-23.060205L890.556779 605.838458 890.556779 605.838458 890.556779 605.838458zM697.098695 352.178247c0 84.943624-68.849064 153.73436-153.733337 153.73436-84.883249 0-153.73436-68.790736-153.73436-153.73436s68.850088-153.733337 153.73436-153.733337C628.249631 198.44491 697.098695 267.2336 697.098695 352.178247L697.098695 352.178247 697.098695 352.178247z"  horiz-adv-x="1024" />

    
    <glyph glyph-name="zj" unicode="&#58923;" d="M512-128C229.22752-128 0 101.22752 0 384S229.22752 896 512 896s512-229.22752 512-512S794.77248-128 512-128zM512 842.10688c-253.0048 0-458.10688-205.10208-458.10688-458.10688S258.9952-74.10688 512-74.10688s458.10688 205.10208 458.10688 458.10688S765.0048 842.10688 512 842.10688zM700.63104 357.05344l-161.68448 0 0-161.68448c0-14.88384-12.06272-26.94656-26.94656-26.94656s-26.94656 12.06272-26.94656 26.94656l0 161.68448L323.36896 357.05344c-14.88384 0-26.94656 12.06272-26.94656 26.94656 0 14.88384 12.06272 26.94656 26.94656 26.94656l161.68448 0L485.05344 572.63104c0 14.88384 12.06272 26.94656 26.94656 26.94656s26.94656-12.06272 26.94656-26.94656l0-161.68448 161.68448 0c14.88384 0 26.94656-12.06272 26.94656-26.94656C727.5776 369.11616 715.51488 357.05344 700.63104 357.05344z"  horiz-adv-x="1024" />

    
    <glyph glyph-name="lajitong1" unicode="&#58948;" d="M380.565633 811.831102C391.492953 822.758423 412.883938 831.616766 428.328892 831.616766L596.182087 831.616766C611.633685 831.616766 633.010015 822.766433 643.945345 811.831102L680.111776 775.664671 344.399202 775.664671 380.565633 811.831102ZM875.944112 719.712575C891.394856 719.712575 903.92016 732.237878 903.92016 747.688623 903.92016 763.139367 891.394856 775.664671 875.944112 775.664671L148.566866 775.664671C133.116122 775.664671 120.590818 763.139367 120.590818 747.688623 120.590818 732.237878 133.116122 719.712575 148.566866 719.712575L875.944112 719.712575ZM180.539492 663.760479 180.254748 667.746901 228.640985 719.712575 232.637564 719.712575 280.347765 51.769758C282.63628 19.730546 312.053012-7.664671 344.377659-7.664671L680.133319-7.664671C712.845805-7.664671 741.848496 19.363718 744.163214 51.769758L791.873414 719.712575 795.869993 719.712575 844.25623 667.746901 843.971486 663.760479 180.539492 663.760479ZM847.968064 719.712575 799.973118 47.783336C795.578506-13.741242 742.362215-63.616766 680.133319-63.616766L344.377659-63.616766C282.586578-63.616766 228.909839-13.424372 224.53786 47.783336L176.542914 719.712575 847.968064 719.712575ZM484.279441 132.215569C484.279441 116.764824 496.804744 104.239521 512.255489 104.239521 527.706234 104.239521 540.231537 116.764824 540.231537 132.215569L540.231537 523.88024C540.231537 539.330984 527.706234 551.856287 512.255489 551.856287 496.804744 551.856287 484.279441 539.330984 484.279441 523.88024L484.279441 132.215569ZM607.198225 135.399043C605.851604 120.007093 617.237593 106.437801 632.629543 105.091179 648.021493 103.744558 661.590785 115.130547 662.937406 130.522497L697.073232 520.696765C698.419853 536.088715 687.033864 549.658008 671.641914 551.004629 656.249965 552.35125 642.680672 540.965261 641.334051 525.573312L607.198225 135.399043ZM361.573572 130.522497C362.920193 115.130547 376.489486 103.744558 391.881435 105.091179 407.273385 106.437801 418.659374 120.007093 417.312753 135.399043L383.176927 525.573312C381.830306 540.965261 368.261013 552.35125 352.869064 551.004629 337.477114 549.658008 326.091125 536.088715 327.437746 520.696765L361.573572 130.522497Z"  horiz-adv-x="1024" />

    
    <glyph glyph-name="chaxun" unicode="&#58917;" d="M816.458665-124.789888c3.041266 0 6.180769 0.538259 9.347902 1.528819-9.057283-1.000793-18.255783-1.528819-27.579125-1.528819L816.458665-124.789888zM769.659803 195.073116c-24.047696 0-43.554982-19.430538-43.554982-43.404556 0-23.975041 19.507286-43.404556 43.554982-43.404556 24.072255 0 43.579541 19.429515 43.579541 43.404556C813.239344 175.642578 793.733081 195.073116 769.659803 195.073116zM798.226418 318.624037c-108.821451 0-197.040678-87.844697-197.040678-196.241476s88.219227-196.290595 197.040678-196.290595c108.794845 0 197.013049 87.895863 197.013049 196.290595C995.240491 230.781386 907.022287 318.624037 798.226418 318.624037zM893.100206 7.010927c-6.005784 0-11.465123 2.430352-15.412015 6.351662l-63.830771 63.606667c-12.978593-7.644097-28.04166-12.087293-44.197618-12.087293-48.119951 0-87.13043 38.83754-87.13043 86.786599 0 47.923476 39.010479 86.785575 87.13043 86.785575s87.133499-38.862099 87.133499-86.785575c0-16.08228-4.467755-31.096229-12.134365-44.025703l63.851237-63.581084c3.921309-3.944845 6.379291-9.357112 6.379291-15.361873C914.890488 16.712893 905.13531 7.010927 893.100206 7.010927zM206.688921 714.8615c24.077372 0 50.836829 26.858718 50.836829 50.836829L257.52575 841.954083c0 23.978111-16.731056 50.836829-50.836829 50.836829-29.189809 0-50.836829-26.858718-50.836829-50.836829l0-76.255755C155.852092 741.720218 182.612573 714.8615 206.688921 714.8615zM435.453115 714.8615c41.206494 0 50.837852 26.858718 50.837852 50.836829L486.290967 841.954083c0 23.978111-14.199397 50.836829-50.837852 50.836829-35.991726 0-50.836829-26.858718-50.836829-50.836829l0-76.255755C384.616286 741.720218 402.314367 714.8615 435.453115 714.8615zM664.217309 714.8615c33.112142 0 50.836829 26.858718 50.836829 50.836829L715.054137 841.954083c0 23.978111-17.72264 50.836829-50.836829 50.836829-29.189809 0-50.837852-26.858718-50.837852-50.836829l0-76.255755C613.38048 741.720218 640.164496 714.8615 664.217309 714.8615zM816.726771-123.936451c3.024893 0 6.151094 0.535189 9.302877 1.51961-9.015328-0.99363-18.167778-1.51961-27.447119-1.51961L816.726771-123.936451zM551.646464 122.053056c0 135.828548 110.559025 245.942435 246.936065 245.942435 24.572652 0 48.299029-3.593851 70.701249-10.252505l-1.720178 382.536416c0 23.981181-26.758434 50.837852-50.836829 50.837852l-50.837852 0 0-50.837852c0-47.956222-53.54245-76.254731-101.671611-76.254731s-101.672634 28.297486-101.672634 76.254731l0 50.837852-25.418926 0 0-50.837852c0-47.956222-53.914934-76.254731-101.671611-76.254731-77.570703 0-101.671611 53.715389-101.671611 101.671611l0 25.419949L308.363601 791.116231l0-25.418926c-0.051165-48.202838-38.275745-101.275591-103.982236-101.275591-48.130184 0-99.364055 36.19127-99.364055 101.275591l0 25.418926-25.418926 0c-24.077372 0-50.837852-26.856671-50.837852-50.837852l0-806.331515c0-23.980157 26.758434-57.884338 50.837852-57.884338l718.983121 0C662.207535-123.936451 551.646464-13.824611 551.646464 122.053056zM181.271018 511.516232c0 0 530.158568-2.333138 531.523659 0 24.599258 0.893346 53.095265-14.645558 53.095265-50.836829 0-34.205033-26.75741-50.836829-50.836829-50.836829L181.271018 409.842575c-24.078395 0-50.836829 12.559037-50.836829 50.836829C130.435213 493.146862 157.192623 511.516232 181.271018 511.516232zM410.035212 3.152039 181.271018 3.152039c-20.057825 0-50.836829 11.418051-50.836829 50.837852 0 29.835516 30.780027 53.568033 50.836829 53.568033l228.764194-2.731204c20.056801 0 50.837852-11.022031 50.837852-50.836829C460.873064 22.415778 430.092014 3.152039 410.035212 3.152039zM460.873064 206.499353 181.271018 206.499353c-24.078395 0-50.836829 15.884782-50.836829 50.835805 0 38.57455 26.75741 50.836829 50.836829 50.836829l279.601023 0c24.075325 0 50.835805-18.96391 50.835805-50.836829C511.707846 233.356025 484.948389 206.499353 460.873064 206.499353z"  horiz-adv-x="1024" />

    
    <glyph glyph-name="bianji1" unicode="&#59261;" d="M318.78137 357.130026l-120.216989-243.62874c-10.07138-27.421536 11.835559-51.999304 39.204907-39.281655L480.951867 194.653561c10.473539 2.044566 20.641109 6.115278 28.763091 14.256702l432.006108 432.829869c21.682835 21.727861 21.682835 56.970526 0 78.698386l-98.182137 98.368378c-21.688975 21.714558-56.855916 21.714558-78.544891 0L333.00021 385.963725C324.878229 377.835603 320.813656 367.655753 318.78137 357.130026L318.78137 357.130026M784.637424 759.772362c10.819416 10.863419 28.418236 10.863419 39.262212 0l58.900481-59.034535c10.857279-10.863419 10.857279-28.463262 0-39.33282l-58.900481-59.008952-96.763834 99.773378L784.637424 759.772362 784.637424 759.772362M685.746136 660.714276l98.892311-97.677647L470.471165 248.256386c-25.095561 25.121144-20.091594 20.111037-17.791202 17.777899l-1.865487 1.88493-58.919924 59.028395c-10.844999 10.870582-9.202593 9.214872-19.644409 19.669992L685.746136 660.714276 685.746136 660.714276M421.514149 218.573343l-150.168138-91.070158c-13.669324-6.351662-25.932626 6.818289-19.579941 19.644409l90.89722 150.443407L421.514149 218.573343 421.514149 218.573343M902.688073 498.978684l0-447.796746c0-30.738072-30.367635-56.3064-61.003376-56.3064l-666.48956 0c-30.661324 0-55.519478 24.922622-55.519478 55.654554L119.67566 718.279343c0 30.731932 25.593911 60.587913 56.255235 60.587913L623.177102 778.867256 623.177102 834.847222 175.929872 834.847222c-61.35437 0-111.800295-55.097876-111.800295-116.567879l0-667.748227c0-61.470003 49.756217-111.289666 111.065562-111.289666l666.48956 0c61.322647 0 116.918873 50.484811 116.918873 111.941512L958.603571 498.978684 902.688073 498.978684 902.688073 498.978684M902.688073 498.978684"  horiz-adv-x="1024" />

    
    <glyph glyph-name="jiantou-copy1" unicode="&#58881;" d="M348.443 575.383l187.614-191.277-187.614-191.348c-21.134-21.586-21.134-56.598 0-78.147 21.202-21.622 55.518-21.622 76.686 0l188.104 190.788 76.478 77.942-264.581 270.23c-21.167 21.586-55.483 21.586-76.685 0-21.134-21.551-21.134-56.563 0-78.185z"  horiz-adv-x="1024" />

    
    <glyph glyph-name="usercircle" unicode="&#58942;" d="M512 896c-281.6 0-512-230.4-512-512s230.4-512 512-512c281.6 0 512 230.4 512 512 0 281.6-230.4 512-512 512zM241.596 44.783c0 0 156.809 28.809 156.809 128 0 28.809 22.391 44.783 0 64.034-19.183 19.183-32.017 63.966-41.574 105.609-3.209 22.391-41.643 22.391-41.643 63.966-22.391 22.391 0 60.826 0 86.426 0 64.034-3.209 131.209 22.391 169.574 89.634 124.791 259.209 128 342.426 0 28.809-41.574 22.391-105.609 22.391-169.574 0-28.809 19.183-63.966 0-86.426 0-41.574-38.434-47.991-41.574-64.034-6.417-38.366-25.6-86.357-41.643-105.54-12.834-15.974 0-35.226 0-64.034 0-99.191 160.017-124.791 163.226-124.791 0 0-270.404-142.404-540.809-3.209z"  horiz-adv-x="1024" />

    
    <glyph glyph-name="mimasel" unicode="&#59002;" d="M705.226305 475.722004 318.826907 475.722004c-10.541077 0-19.126616-8.585539-19.126616-19.126616l0-281.959743c0-10.541077 8.586562-19.126616 19.126616-19.126616l386.399397 0c10.5421 0 19.126616 8.586562 19.126616 19.126616L724.352921 456.594365C724.352921 467.136465 715.768405 475.722004 705.226305 475.722004zM524.796956 311.947987c0.978281-1.902326 2.418073-3.585665 2.418073-5.814426l0-34.830273c0-7.662517-6.249331-13.910824-13.910824-13.910824-7.716752 0-13.910824 6.247284-13.910824 13.910824l0 34.830273c0 2.228761 1.438769 3.911076 2.390443 5.814426-11.574616 4.564969-19.833721 15.756869-19.833721 28.962635 0 17.278525 14.07353 31.352055 31.354102 31.352055 17.22429 0 31.298843-14.07353 31.298843-31.352055C544.603047 327.704856 536.34292 316.566168 524.796956 311.947987zM513.901815 650.582521c-83.7351 0-151.930271-64.933895-158.749584-147.038868L672.70461 503.543653C665.885298 585.648626 597.691149 650.582521 513.901815 650.582521zM511.999488 829.138196c-245.825778 0-445.138196-199.312418-445.138196-445.138196 0-245.826801 199.312418-445.137173 445.138196-445.137173 245.880013 0 445.138196 199.310372 445.138196 445.137173C957.137685 629.824755 757.879502 829.138196 511.999488 829.138196zM752.17457 174.634622c0-25.918299-21.084201-46.948265-46.948265-46.948265L318.826907 127.686357c-25.919323 0-46.948265 21.029966-46.948265 46.948265L271.878642 456.594365c0 25.919323 21.028942 46.948265 46.948265 46.948265l8.504698 0c6.874571 97.483218 87.457888 174.860517 186.570209 174.860517 99.166557 0 179.749874-77.377298 186.623421-174.860517l4.701069 0c25.864064 0 46.948265-21.028942 46.948265-46.948265L752.17457 174.634622z"  horiz-adv-x="1024" />

    
    </font>
</defs>
</svg>
