<svg xmlns="http://www.w3.org/2000/svg" viewBox="0 0 129.08 129.08"><defs><style>.cls-1{fill:#237fc4;}</style></defs><title>资源 3</title><g id="图层_2" data-name="图层 2"><g id="图层_1-2" data-name="图层 1"><path class="cls-1" d="M92.22,71.75a2.08,2.08,0,0,0,0,3,6.24,6.24,0,0,1,0,8.83,2.08,2.08,0,1,0,2.94,2.94,10.41,10.41,0,0,0,0-14.72A2.08,2.08,0,0,0,92.22,71.75Z"/><path class="cls-1" d="M102.16,64.39a2.08,2.08,0,0,0-2.94,3,16.65,16.65,0,0,1,0,23.55,2.08,2.08,0,0,0,1.47,3.55,2,2,0,0,0,1.47-.61,20.81,20.81,0,0,0,0-29.44Z"/><path class="cls-1" d="M106.79,57a2.09,2.09,0,0,0,0,2.95,27.05,27.05,0,0,1,0,38.27,2.08,2.08,0,0,0,1.47,3.55,2.05,2.05,0,0,0,1.47-.61,31.22,31.22,0,0,0,0-44.16A2.08,2.08,0,0,0,106.79,57Z"/><path class="cls-1" d="M81.2,52.05a6.24,6.24,0,0,0-6.07,4.82l-1,.46a102.86,102.86,0,0,1-42.89,9.29H22.9A6.23,6.23,0,0,0,17,71a10.38,10.38,0,0,0,0,20.47,6.23,6.23,0,0,0,5.91,4.34h8.33c1.39,0,2.78,0,4.16.11v22.79a10.41,10.41,0,0,0,20.82,0V98.85a103.24,103.24,0,0,1,17.91,6.21l1,.46a6.24,6.24,0,0,0,12.31-1.42V58.29A6.25,6.25,0,0,0,81.2,52.05ZM12.49,81.19a6.23,6.23,0,0,1,4.17-5.86V87.06A6.24,6.24,0,0,1,12.49,81.19Zm8.33,8.33V72.87a2.08,2.08,0,0,1,2.08-2.08h6.25V75H27.07a2.08,2.08,0,0,0,0,4.16h2.08v4.17H27.07a2.08,2.08,0,0,0,0,4.16h2.08V91.6H22.9A2.08,2.08,0,0,1,20.82,89.52ZM39.56,104.1h4.16v10.41H39.56Zm12.49,14.57a6.25,6.25,0,1,1-12.49,0H45.8a2.08,2.08,0,0,0,2.09-2.08V102a2.08,2.08,0,0,0-2.09-2.08H39.56v-3.8a104.27,104.27,0,0,1,12.49,1.76Zm-18.74-27V70.76A106.87,106.87,0,0,0,75,61.5v39.39A106.87,106.87,0,0,0,33.31,91.63Zm50,12.47a2.08,2.08,0,0,1-4.16,0V58.29a2.08,2.08,0,0,1,4.16,0Z"/><path class="cls-1" d="M62.46,75H45.8A2.08,2.08,0,0,0,43.72,77v8.33a2.08,2.08,0,0,0,2.08,2.08H62.46a2.08,2.08,0,0,0,2.08-2.08V77A2.08,2.08,0,0,0,62.46,75ZM47.89,79.11h4.16v4.17H47.89Zm12.49,4.17H56.21V79.11h4.17Z"/><path class="cls-1" d="M45.8,41.64H83.28a2.08,2.08,0,0,0,2-2.74L82.62,31a10.43,10.43,0,0,0-7.84-6.91l-4-.8V22.9s0,0,0,0A10.39,10.39,0,0,0,75,14.57V10.41a10.41,10.41,0,1,0-20.82,0v4.16a10.42,10.42,0,0,0,4.17,8.29v.42l-4,.8A10.43,10.43,0,0,0,46.46,31L43.83,38.9a2,2,0,0,0,.28,1.87A2.09,2.09,0,0,0,45.8,41.64ZM62.46,24.77a10.41,10.41,0,0,0,4.16,0V25a2.08,2.08,0,1,1-4.16,0ZM58.3,10.41a6.25,6.25,0,1,1,12.49,0v4.16a6.25,6.25,0,1,1-12.49,0Zm-7.89,21.9a6.27,6.27,0,0,1,4.71-4.15l3.67-.73a6.25,6.25,0,0,0,11.5,0l3.68.74a6.27,6.27,0,0,1,4.7,4.15l1.72,5.16H48.69Z"/><path class="cls-1" d="M129,38.9,126.34,31a10.43,10.43,0,0,0-7.84-6.91l-4-.8V22.9s0,0,0,0a10.39,10.39,0,0,0,4.17-8.29V10.41a10.41,10.41,0,1,0-20.82,0v4.16A10.42,10.42,0,0,0,102,22.86v.42l-4,.8A10.47,10.47,0,0,0,90.18,31L87.55,38.9a2,2,0,0,0,.28,1.87,2.09,2.09,0,0,0,1.69.87H127a2.08,2.08,0,0,0,2-2.74ZM106.18,24.77a10.41,10.41,0,0,0,4.16,0V25a2.08,2.08,0,0,1-4.16,0ZM102,10.41a6.25,6.25,0,1,1,12.49,0v4.16a6.25,6.25,0,1,1-12.49,0ZM92.41,37.47l1.72-5.16a6.27,6.27,0,0,1,4.71-4.15l3.67-.73a6.25,6.25,0,0,0,11.5,0l3.68.74a6.27,6.27,0,0,1,4.7,4.15l1.72,5.16Z"/><path class="cls-1" d="M41.25,40.77a2,2,0,0,0,.28-1.87L38.9,31a10.43,10.43,0,0,0-7.84-6.91l-4-.8V22.9s0,0,0,0a10.39,10.39,0,0,0,4.17-8.29V10.41a10.41,10.41,0,0,0-20.82,0v4.16a10.42,10.42,0,0,0,4.17,8.29v.42l-4,.8A10.43,10.43,0,0,0,2.74,31L.11,38.9a2,2,0,0,0,.28,1.87,2.09,2.09,0,0,0,1.69.87H39.56A2.07,2.07,0,0,0,41.25,40.77Zm-22.51-16a10.41,10.41,0,0,0,4.16,0V25a2.08,2.08,0,1,1-4.16,0ZM14.58,10.41a6.25,6.25,0,1,1,12.49,0v4.16a6.25,6.25,0,1,1-12.49,0ZM5,37.47l1.72-5.16a6.27,6.27,0,0,1,4.71-4.15l3.67-.73a6.25,6.25,0,0,0,11.5,0l3.68.74A6.27,6.27,0,0,1,35,32.31l1.72,5.16Z"/></g></g></svg>