<svg xmlns="http://www.w3.org/2000/svg" viewBox="0 0 136.61 136.74"><defs><style>.cls-1{fill:#fff;}</style></defs><title>资源 1</title><g id="图层_2" data-name="图层 2"><g id="图层_1-2" data-name="图层 1"><path class="cls-1" d="M68.31,0c-9,0-16.72,6.7-16.72,15.32,0,7.66,6,13.81,13.63,15.13V46.88A24.46,24.46,0,0,0,49.51,55.1L32.84,46.4a15.24,15.24,0,0,0-7.79-18.22,18.35,18.35,0,0,0-8.7-2A16.69,16.69,0,0,0,2.29,33.69h0v.05c-4.73,7.34-1.66,17,6.28,21.17A18.66,18.66,0,0,0,29.6,51.72l16.67,8.6a20,20,0,0,0-1.74,8,19.78,19.78,0,0,0,1.74,8L29.55,85a17.22,17.22,0,0,0-12.33-5.32,18.4,18.4,0,0,0-8.7,2.08C.58,85.86-2.49,95.61,2.24,103h0c4.69,7.41,14.82,9.64,22.76,5.51,6.92-3.59,10.13-11.41,7.79-18.22l16.72-8.65A24.39,24.39,0,0,0,65.22,89.8v16.39c-7.63,1.32-13.63,7.47-13.63,15.13,0,8.62,7.69,15.42,16.72,15.42S85,129.94,85,121.32c0-7.65-6-13.79-13.63-15.13V89.8a24.31,24.31,0,0,0,15.66-8.26l16.72,8.75c-2.38,6.8.83,14.58,7.73,18.17,10.17,4.65,18.51.83,22.87-5.51,4.66-7.33,1.72-17.08-6.29-21.22a21.14,21.14,0,0,0-8.7-2.08A17.1,17.1,0,0,0,107,85L90.35,76.32a19.78,19.78,0,0,0,1.69-8,20,20,0,0,0-1.69-8L107,51.67A17.74,17.74,0,0,0,128.05,55s0-.05,0-.05h0c8-4.14,11-13.84,6.29-21.17v-.05a17,17,0,0,0-14.17-7.54,18.24,18.24,0,0,0-8.65,2h0a15.16,15.16,0,0,0-7.73,18.22L87.07,55.1a24.31,24.31,0,0,0-15.66-8.22V30.45C79.05,29.11,85,23,85,15.32,85,6.7,77.39,0,68.31,0ZM15.82,32.38c.41,0,.81,0,1.21,0a11.82,11.82,0,0,1,5.17,1.31c5.16,2.68,6.72,8,4,12.42s-9.55,6.08-14.79,3.34C6.53,46.58,5.21,40.8,7.46,37A9.12,9.12,0,0,1,15.82,32.38ZM68.31,52.83c9.94,0,17.55,7.14,17.55,15.51a14,14,0,0,1-2.08,7.3,2.9,2.9,0,0,0-.19.34,17.94,17.94,0,0,1-15.28,7.83c-9.86,0-17.59-7.1-17.59-15.47S58.45,52.83,68.31,52.83ZM16.55,85.89a11.14,11.14,0,0,1,9.62,4.69c2.76,4.34,1.2,9.73-4,12.42s-12,1-14.74-3.38S6.2,89.88,11.38,87.19A11.78,11.78,0,0,1,16.55,85.89Zm51.76,26.25c6.09,0,10.54,4.2,10.54,9.18s-4.46,9.23-10.54,9.23-10.53-4.33-10.53-9.23S62.3,112.14,68.31,112.14Z"/></g></g></svg>