<svg xmlns="http://www.w3.org/2000/svg" viewBox="0 0 119.44 119.44"><defs><style>.cls-1{fill:#fff;}</style></defs><title>资源 2</title><g id="图层_2" data-name="图层 2"><g id="图层_1-2" data-name="图层 1"><rect class="cls-1" x="41.81" y="39.81" width="3.98" height="3.98"/><rect class="cls-1" x="41.81" y="47.78" width="3.98" height="3.98"/><rect class="cls-1" x="41.81" y="55.74" width="3.98" height="3.98"/><rect class="cls-1" x="41.81" y="63.7" width="3.98" height="3.98"/><rect class="cls-1" x="49.77" y="39.81" width="3.98" height="3.98"/><rect class="cls-1" x="49.77" y="47.78" width="3.98" height="3.98"/><rect class="cls-1" x="49.77" y="55.74" width="3.98" height="3.98"/><rect class="cls-1" x="49.77" y="63.7" width="3.98" height="3.98"/><rect class="cls-1" x="57.73" y="39.81" width="3.98" height="3.98"/><rect class="cls-1" x="57.73" y="47.78" width="3.98" height="3.98"/><rect class="cls-1" x="57.73" y="55.74" width="3.98" height="3.98"/><rect class="cls-1" x="57.73" y="63.7" width="3.98" height="3.98"/><rect class="cls-1" x="65.69" y="39.81" width="3.98" height="3.98"/><rect class="cls-1" x="49.77" y="31.85" width="3.98" height="3.98"/><rect class="cls-1" x="57.73" y="31.85" width="3.98" height="3.98"/><rect class="cls-1" x="65.69" y="31.85" width="3.98" height="3.98"/><rect class="cls-1" x="65.69" y="47.78" width="3.98" height="3.98"/><rect class="cls-1" x="65.69" y="55.74" width="3.98" height="3.98"/><rect class="cls-1" x="65.69" y="63.7" width="3.98" height="3.98"/><rect class="cls-1" x="73.66" y="39.81" width="3.98" height="3.98"/><rect class="cls-1" x="73.66" y="47.78" width="3.98" height="3.98"/><rect class="cls-1" x="73.66" y="55.74" width="3.98" height="3.98"/><rect class="cls-1" x="73.66" y="63.7" width="3.98" height="3.98"/><path class="cls-1" d="M117.45,29.86H87.59V2a2,2,0,0,0-2-2H33.84a2,2,0,0,0-2,2V29.86H2a2,2,0,0,0-2,2v71.67a2,2,0,0,0,2,2H6.15a13.26,13.26,0,0,0-.18,2v10a2,2,0,0,0,2,2H111.48a2,2,0,0,0,2-2v-10a11.07,11.07,0,0,0-.18-2h4.16a2,2,0,0,0,2-2V31.85A2,2,0,0,0,117.45,29.86ZM85.5,84.72s0,0,0,.06a3.78,3.78,0,0,1,0,1.64s0,0,0,.06a4,4,0,0,1-1.23,2.07h0a3.94,3.94,0,0,1-2.65,1,3.84,3.84,0,0,1-.83-.09l-.27-.08a5.08,5.08,0,0,1-.51-.17c-.11,0-.2-.12-.31-.17a3.26,3.26,0,0,1-.4-.24,3.36,3.36,0,0,1-.29-.24,3.11,3.11,0,0,1-.32-.31,3.22,3.22,0,0,1-.24-.28c-.09-.12-.17-.25-.25-.38a3.72,3.72,0,0,1-.19-.34l-.15-.4c0-.12-.09-.25-.12-.38a3.11,3.11,0,0,1-.06-.44,2.33,2.33,0,0,1,0-.38,3.71,3.71,0,0,1,0-.47,2.33,2.33,0,0,1,0-.38,3.33,3.33,0,0,1,.31-.92,1.51,1.51,0,0,1,.15-.28,3.8,3.8,0,0,1,.5-.69,1.13,1.13,0,0,1,.1-.13,4.56,4.56,0,0,1,.78-.61l.26-.13a3.55,3.55,0,0,1,.84-.32l.13,0a3.87,3.87,0,0,1,1-.08,2.09,2.09,0,0,1,.35,0,4.56,4.56,0,0,1,.64.14l.22.07a4.14,4.14,0,0,1,1.25.77A4,4,0,0,1,85.5,84.72Zm-51.56.06s0,0,0,0a4,4,0,0,1,1.23-2.07,4.43,4.43,0,0,1,1.26-.78l.2-.06a3.93,3.93,0,0,1,.68-.15l.32,0a4,4,0,0,1,1,.07l.13,0a3.73,3.73,0,0,1,.84.32l.25.14a3.88,3.88,0,0,1,.79.61,1.47,1.47,0,0,1,.1.13,4.1,4.1,0,0,1,.5.68l.15.28a3.7,3.7,0,0,1,.31.92,2.58,2.58,0,0,1,0,.39,3.59,3.59,0,0,1,0,.47,2.45,2.45,0,0,1,0,.38,3.32,3.32,0,0,1-.06.44l-.12.38c-.05.13-.1.27-.16.4a3.65,3.65,0,0,1-.18.34c-.08.13-.16.25-.25.37l-.24.29c-.1.11-.21.21-.32.31l-.3.24-.39.24-.31.16a5.17,5.17,0,0,1-.51.18l-.27.08a4.6,4.6,0,0,1-.84.08,3.94,3.94,0,0,1-2.63-1h0A3.94,3.94,0,0,1,34,86.47s0,0,0,0a3.78,3.78,0,0,1,0-1.64Zm-8.06,30.68H10v-8a8,8,0,0,1,1.29-4.31c.1-.15.2-.28.31-.42a7.22,7.22,0,0,1,.56-.68c.12-.13.23-.25.36-.37a9.46,9.46,0,0,1,.78-.64l.28-.22a8.21,8.21,0,0,1,1.17-.63c.13-.06.26-.1.39-.15a8.35,8.35,0,0,1,1-.3l.43-.1a7.2,7.2,0,0,1,2.85,0l.43.1a7.65,7.65,0,0,1,1,.3c.14,0,.27.09.4.15a8.21,8.21,0,0,1,1.17.63l.28.22a9.46,9.46,0,0,1,.78.64l.36.37a7.22,7.22,0,0,1,.56.68c.1.14.21.27.31.42a7.86,7.86,0,0,1,1.29,4.31ZM13.94,91.57a4,4,0,1,1,4,4A4,4,0,0,1,13.94,91.57Zm15.21,1.77c-.11.12-.22.23-.32.36s-.31.36-.45.54l-.29.39c-.14.2-.27.4-.4.6l-.24.39c-.13.22-.24.45-.35.67s-.13.26-.19.4-.19.48-.29.73-.1.26-.14.4-.15.5-.22.76c0,.11-.06.2-.09.32-.09-.09-.2-.17-.28-.26l-.49-.42L25,97.93l-.55-.39-.37-.23c-.12-.07-.28-.18-.43-.26a8,8,0,1,0-11.51,0l-.13.08-.27.16c-.32.2-.64.41-.94.63a2.83,2.83,0,0,1-.28.2,12.74,12.74,0,0,0-2,2l-.17.23c-.25.34-.49.7-.71,1.07a.86.86,0,0,0-.07.1H4V33.84H31.85V80.37c-.06.06-.1.14-.15.2a8.72,8.72,0,0,0-.63.87c-.08.12-.14.26-.22.39-.16.29-.3.59-.43.89s-.13.4-.2.62-.16.51-.22.77a7.53,7.53,0,0,0,0,3c.06.27.15.52.22.77a5,5,0,0,0,.2.62,9.13,9.13,0,0,0,.43.89c.08.13.14.27.22.4a7.59,7.59,0,0,0,.63.86c.05.07.09.14.15.21v.36l-.15.09q-.4.24-.78.51l-.3.23c-.21.16-.42.32-.62.49s-.22.2-.33.31S29.32,93.17,29.15,93.34Zm16.64,22.12H29.86V101.53A8.55,8.55,0,0,1,30,100.1c0-.14.07-.28.1-.43a7.65,7.65,0,0,1,.3-1c.05-.14.1-.27.16-.4a7.32,7.32,0,0,1,.63-1.17c.06-.1.14-.18.21-.28a9.59,9.59,0,0,1,.65-.78c.11-.12.24-.24.36-.36a8.77,8.77,0,0,1,.68-.56l.43-.31a7.93,7.93,0,0,1,12.27,6.68Zm23.89,0H49.77V101.53a10,10,0,1,1,19.91,0ZM53.75,81.62a6,6,0,1,1,6,6A6,6,0,0,1,53.75,81.62ZM72.89,93.4c-.11.12-.22.23-.32.35s-.36.44-.53.67c-.06.08-.13.16-.19.25,0-.08-.11-.15-.15-.23-.22-.37-.46-.73-.71-1.08L70.7,93c-.28-.36-.58-.71-.89-1l-.18-.2a15.54,15.54,0,0,0-1.21-1.08l-.33-.25c-.34-.25-.68-.48-1-.7l-.41-.26c-.17-.09-.34-.2-.52-.28a10,10,0,1,0-14-1.2,9.07,9.07,0,0,0,1.2,1.2l-.52.28-.41.26c-.35.22-.69.45-1,.7l-.33.25a15.54,15.54,0,0,0-1.21,1.08l-.18.2c-.31.33-.61.68-.89,1-.1.13-.2.25-.29.38-.25.35-.49.71-.71,1.08,0,.08-.1.15-.15.23-.06-.09-.13-.17-.19-.25-.17-.23-.35-.45-.53-.67s-.21-.23-.32-.35-.37-.38-.57-.57l-.35-.32c-.21-.18-.42-.35-.65-.52s-.22-.18-.34-.26c-.27-.18-.55-.35-.83-.52l-.21-.13c.11-.11.2-.23.31-.35a2.7,2.7,0,0,0,.22-.33,8.13,8.13,0,0,0,.52-.78A5.07,5.07,0,0,0,45,89a7.75,7.75,0,0,0,.35-.91,6.6,6.6,0,0,0,.2-.63,6.85,6.85,0,0,0,.16-1c0-.22.06-.43.07-.65s0-.14,0-.2c0-.28,0-.57-.09-.84s0-.37,0-.55a.74.74,0,0,0,0-.14,2.44,2.44,0,0,0-.06-.26,7.44,7.44,0,0,0-.36-1.16l-.12-.28a8.27,8.27,0,0,0-.62-1.13.75.75,0,0,0-.07-.12A7.85,7.85,0,0,0,43.47,80l-.07,0a9.19,9.19,0,0,0-1-.85l-.25-.16a8.36,8.36,0,0,0-1.06-.58l-.22-.1a7.93,7.93,0,0,0-1.33-.43h-.05a7.58,7.58,0,0,0-1.65-.18h-.1c-.14,0-.27,0-.4,0a8.5,8.5,0,0,0-1.33.18c-.05,0-.1,0-.15,0V4H83.61V77.9s-.1,0-.15,0a9.6,9.6,0,0,0-1.31-.18c-.15,0-.28,0-.43,0h-.1a8.23,8.23,0,0,0-1.64.17h0a7.75,7.75,0,0,0-1.34.43l-.22.1a8.36,8.36,0,0,0-1.06.58l-.25.16a9.19,9.19,0,0,0-1,.85L76,80A7.91,7.91,0,0,0,75,81.12a.75.75,0,0,0-.07.12,7.26,7.26,0,0,0-.61,1.13,2.36,2.36,0,0,0-.12.28,7.44,7.44,0,0,0-.36,1.16c0,.09,0,.17-.07.26a.7.7,0,0,0,0,.14,4.91,4.91,0,0,0,0,.55,8,8,0,0,0-.08.84c0,.07,0,.14,0,.2,0,.22,0,.43.06.65a8.49,8.49,0,0,0,.16,1,6.6,6.6,0,0,0,.2.63,7.82,7.82,0,0,0,.36.91c.1.21.21.42.33.62a8.13,8.13,0,0,0,.52.78c.08.1.14.23.22.33s.2.23.31.34l-.21.14a8.73,8.73,0,0,0-.82.52l-.35.26c-.22.16-.44.34-.65.52l-.35.32Q73.16,93.12,72.89,93.4Zm16.69,10.12v11.94H73.66V101.53a7.93,7.93,0,0,1,12.27-6.68,4.13,4.13,0,0,1,.42.31,7.22,7.22,0,0,1,.68.56c.12.12.25.23.37.36a9.46,9.46,0,0,1,.64.78,2.92,2.92,0,0,1,.21.28,7.37,7.37,0,0,1,.64,1.17c.06.13.1.26.15.39a8.35,8.35,0,0,1,.3,1c0,.14.07.28.1.43a7.62,7.62,0,0,1,.14,1.43Zm19.91,11.94H93.56v-8a8,8,0,0,1,1.29-4.31c.1-.15.2-.28.31-.42a7.22,7.22,0,0,1,.56-.68c.12-.13.23-.25.36-.37a9.46,9.46,0,0,1,.78-.64l.28-.22a8.21,8.21,0,0,1,1.17-.63c.13-.06.26-.1.39-.15a8.35,8.35,0,0,1,1-.3l.43-.1a7.2,7.2,0,0,1,2.85,0l.43.1a7.65,7.65,0,0,1,1,.3c.14,0,.27.09.4.15a8.21,8.21,0,0,1,1.17.63l.28.22a9.46,9.46,0,0,1,.78.64l.36.37a7.22,7.22,0,0,1,.56.68c.1.14.21.27.31.42a7.86,7.86,0,0,1,1.29,4.31ZM97.55,91.57a4,4,0,1,1,4,4A4,4,0,0,1,97.55,91.57Zm17.91,10h-3.6l-.07-.11a12.24,12.24,0,0,0-.71-1.06l-.17-.23a12,12,0,0,0-2-2,2.83,2.83,0,0,0-.28-.2c-.3-.22-.61-.43-.94-.63l-.26-.16-.13-.08a8,8,0,1,0-11.52,0l-.42.26-.37.23c-.19.12-.37.25-.55.39l-.38.29c-.17.13-.33.28-.49.42l-.29.26c0-.11-.06-.2-.09-.32s-.13-.51-.21-.76-.1-.26-.14-.4-.19-.49-.3-.73-.12-.26-.18-.4L92,95.62l-.24-.39c-.13-.2-.26-.4-.4-.6l-.29-.39c-.15-.18-.29-.37-.45-.54s-.21-.24-.32-.36-.34-.35-.52-.51l-.33-.31c-.2-.17-.4-.34-.62-.5l-.3-.22q-.39-.27-.78-.51l-.15-.1v-.35a1.59,1.59,0,0,1,.15-.21,8.6,8.6,0,0,0,.63-.86c.08-.13.14-.26.21-.4a8.16,8.16,0,0,0,.44-.89c.07-.2.12-.4.2-.62s.16-.5.21-.77a7.17,7.17,0,0,0,0-3c-.05-.27-.14-.52-.21-.77s-.12-.42-.2-.62a8.16,8.16,0,0,0-.44-.89c-.07-.13-.13-.26-.21-.4a8.6,8.6,0,0,0-.63-.86,1.59,1.59,0,0,1-.15-.21V33.84h27.87Z"/><rect class="cls-1" x="93.56" y="45.79" width="3.98" height="31.85"/><rect class="cls-1" x="105.51" y="45.79" width="3.98" height="31.85"/><rect class="cls-1" x="9.95" y="45.79" width="3.98" height="31.85"/><rect class="cls-1" x="21.9" y="45.79" width="3.98" height="31.85"/><path class="cls-1" d="M73.66,10a2,2,0,0,0-2-2H47.78a2,2,0,0,0-2,2V25.88a2,2,0,0,0,2,2H71.67a2,2,0,0,0,2-2Zm-4,13.94H49.77v-12H69.68Z"/></g></g></svg>